<?xml version="1.0" encoding="UTF-8"?>
<svg version="1.1" xmlns="http://www.w3.org/2000/svg" width="676" height="369">
<path d="M0 0 C0.11877934 4.88870747 -0.28040926 9.32393412 -1.1875 14.125 C-1.46081351 15.59743806 -1.73284035 17.07011526 -2.00390625 18.54296875 C-2.2361792 19.79859619 -2.2361792 19.79859619 -2.47314453 21.07958984 C-3.09837213 24.54528608 -3.68915661 28.01610781 -4.27734375 31.48828125 C-4.38811752 32.14101013 -4.4988913 32.79373901 -4.61302185 33.46624756 C-5.17336171 36.76823128 -5.73129833 40.07057784 -6.28588867 43.37353516 C-6.49318604 44.58960449 -6.7004834 45.80567383 -6.9140625 47.05859375 C-7.0992041 48.15486084 -7.2843457 49.25112793 -7.47509766 50.38061523 C-8 53 -8 53 -9 55 C-9.99 55 -10.98 55 -12 55 C-13.4296875 53.5390625 -13.4296875 53.5390625 -14.875 51.625 C-17.3138849 48.60687994 -19.1475298 47.01977152 -23 46 C-23.721875 46.886875 -24.44375 47.77375 -25.1875 48.6875 C-28.56194272 52.72545674 -32.17246574 56.35929781 -36.25 59.6875 C-39.01742194 61.7042322 -39.01742194 61.7042322 -40 64 C-38.68 64.33 -37.36 64.66 -36 65 C-34.26784937 71.93205474 -34.81701308 79.24193207 -34.91235352 86.33789062 C-34.92911709 88.11255115 -34.92976829 89.88743703 -34.91430664 91.66210938 C-34.89308946 94.23487165 -34.92351059 96.80257244 -34.96484375 99.375 C-34.9485643 100.16471191 -34.93228485 100.95442383 -34.91551208 101.76806641 C-34.98634902 104.09634424 -35.14083794 105.83133848 -36 108 C-38.41770575 110.23070304 -41.03657402 111.61108703 -44 113 C-44.72618027 113.36367676 -45.45236053 113.72735352 -46.20054626 114.10205078 C-47.49908146 114.7501189 -48.80218794 115.38909654 -50.109375 116.01953125 C-51.96916374 116.98400847 -53.65333478 118.05904227 -55.375 119.25 C-58 121 -58 121 -60 121 C-60.495 122.485 -60.495 122.485 -61 124 C-61.7425 124.12375 -62.485 124.2475 -63.25 124.375 C-67.63667611 125.37197184 -69.46660641 126.19990962 -72 130 C-72.66 130 -73.32 130 -74 130 C-74.66 130.66 -75.32 131.32 -76 132 C-77.98636298 132.70626239 -79.98848259 133.36893571 -82 134 C-84.7193293 134.78702351 -84.7193293 134.78702351 -87 136 C-87.66 137.32 -88.32 138.64 -89 140 C-94.28 140 -99.56 140 -105 140 C-105.33 138.68 -105.66 137.36 -106 136 C-109.25236819 133.74836048 -113.21866927 133.01805058 -117 132 C-117 133.32 -117 134.64 -117 136 C-118.68441477 136.36856092 -120.37277669 136.71909728 -122.0625 137.0625 C-123.00222656 137.25972656 -123.94195312 137.45695313 -124.91015625 137.66015625 C-127.78965391 137.97686459 -130.03931757 137.68974235 -132.87257385 137.25465393 C-137.21637057 136.73469938 -141.5949176 136.75721964 -145.96484375 136.68359375 C-147.51480797 136.6524221 -147.51480797 136.6524221 -149.09608459 136.62062073 C-152.37649284 136.55556522 -155.65697685 136.49644596 -158.9375 136.4375 C-161.16992951 136.39427289 -163.40235154 136.35065729 -165.63476562 136.30664062 C-171.08976734 136.19992925 -176.5448448 136.09853942 -182 136 C-182 131.71 -182 127.42 -182 123 C-159.725 122.505 -159.725 122.505 -137 122 C-137.33 120.02 -137.66 118.04 -138 116 C-137 115 -137 115 -133.9375 114.9375 C-132.968125 114.958125 -131.99875 114.97875 -131 115 C-131 114.34 -131 113.68 -131 113 C-134.80860673 112.06495284 -138.43707953 111.87023066 -142.33276367 111.76074219 C-153.62963226 111.40936214 -162.12254424 109.33355041 -171 102 C-171 101.34 -171 100.68 -171 100 C-171.66 100 -172.32 100 -173 100 C-176.81237346 91.04921015 -178.092113 83.24590171 -175.13671875 73.8046875 C-171.66675172 65.24305063 -166.88273683 58.85248995 -159 54 C-159.56050453 57.36302716 -160.39957032 59.99919435 -162 63 C-162.33 63.99 -162.66 64.98 -163 66 C-163.5053125 66.41507812 -164.010625 66.83015625 -164.53125 67.2578125 C-167.42326426 70.68823367 -166.51033194 75.39727057 -166.41796875 79.66796875 C-166.23650203 83.17783689 -166.23650203 83.17783689 -163.8125 86.1875 C-162.884375 86.785625 -161.95625 87.38375 -161 88 C-160.154375 88.5775 -159.30875 89.155 -158.4375 89.75 C-146.27794185 95.98567084 -131.28994455 90.2107754 -119 87 C-117.66710339 86.6649246 -116.3339122 86.33100925 -115 86 C-115 85.34 -115 84.68 -115 84 C-114.1646875 83.63648438 -114.1646875 83.63648438 -113.3125 83.265625 C-100.94187083 77.83257841 -90.4068612 71.27333295 -79.75 62.9375 C-78.58597656 62.0393457 -78.58597656 62.0393457 -77.3984375 61.12304688 C-73.33152987 57.95488419 -69.58803864 54.71550005 -66 51 C-64.69889203 49.8618439 -63.38716027 48.73565585 -62.0625 47.625 C-58.83915507 44.83789724 -56.07684823 41.90588651 -53.3671875 38.625 C-50.57434399 35.305506 -47.38428845 32.3668208 -44.25 29.375 C-41.80995326 27.13466888 -41.80995326 27.13466888 -41 24 C-41.680625 23.773125 -42.36125 23.54625 -43.0625 23.3125 C-46.67613614 21.69789662 -50.14279158 19.77486812 -53 17 C-53 16.01 -53 15.02 -53 14 C-41.59048998 10.41212279 -30.22205758 6.88118074 -18.54052734 4.28710938 C-14.84006769 3.459315 -11.2665345 2.50295211 -7.6875 1.25 C-4 0 -4 0 0 0 Z M-54 74 C-54.75539063 74.78890625 -55.51078125 75.5778125 -56.2890625 76.390625 C-59.14010859 79.13485957 -62.16315015 81.36811115 -65.4375 83.5625 C-65.98470703 83.93568359 -66.53191406 84.30886719 -67.09570312 84.69335938 C-69.2949602 86.18989525 -71.49382171 87.6820289 -73.74658203 89.09716797 C-75.19610954 90.0165777 -76.60264003 91.0030901 -78 92 C-78 92.66 -78 93.32 -78 94 C-78.9075 94.12375 -79.815 94.2475 -80.75 94.375 C-83.60996164 94.92499262 -85.55989718 95.46363897 -88 97 C-88.33 97.66 -88.66 98.32 -89 99 C-90.78515625 99.74609375 -90.78515625 99.74609375 -93.0625 100.4375 C-97.44111639 101.81283464 -101.71256085 103.36297778 -106 105 C-106 105.66 -106 106.32 -106 107 C-102.98968256 107.93423645 -102.13349732 108.04449911 -99 107 C-98.13583148 110.1326109 -97.66459001 112.69815165 -98.49389648 115.91699219 C-99.03282891 118.13511638 -99.11393793 120.04868935 -99.09765625 122.328125 C-99.09443359 123.12734375 -99.09121094 123.9265625 -99.08789062 124.75 C-99.07951172 125.575 -99.07113281 126.4 -99.0625 127.25 C-99.05798828 128.09046875 -99.05347656 128.9309375 -99.04882812 129.796875 C-99.03707961 131.86461401 -99.01914522 133.93231624 -99 136 C-98.01 136 -97.02 136 -96 136 C-96 135.01 -96 134.02 -96 133 C-95.34 133 -94.68 133 -94 133 C-93.97102565 128.72918086 -93.95321004 124.45838691 -93.9375 120.1875 C-93.92912109 118.97255859 -93.92074219 117.75761719 -93.91210938 116.50585938 C-93.90888672 115.34248047 -93.90566406 114.17910156 -93.90234375 112.98046875 C-93.89710693 111.90692139 -93.89187012 110.83337402 -93.88647461 109.72729492 C-93.87805412 106.90500635 -93.87805412 106.90500635 -95 104 C-94.175 103.7525 -93.35 103.505 -92.5 103.25 C-89.09760968 102.0348606 -86.02573766 100.57163803 -82.83203125 98.90234375 C-81 98 -81 98 -78 97 C-78.02320313 97.77085937 -78.04640625 98.54171875 -78.0703125 99.3359375 C-78.08835937 100.33882812 -78.10640625 101.34171875 -78.125 102.375 C-78.14820313 103.37273437 -78.17140625 104.37046875 -78.1953125 105.3984375 C-78.27216848 108.16262173 -78.27216848 108.16262173 -76 110 C-68.00876116 106.64565283 -60.220604 102.813736 -53 98 C-52.73192882 96.09266762 -52.73192882 96.09266762 -53.0234375 93.9296875 C-53.10754883 92.71333618 -53.10754883 92.71333618 -53.19335938 91.47241211 C-53.25330078 90.61526611 -53.31324219 89.75812012 -53.375 88.875 C-53.74749234 80.11244448 -53.74749234 80.11244448 -51.0078125 76.03515625 C-48.75600755 74.15163715 -46.45723109 72.59427493 -44 71 C-44 70.34 -44 69.68 -44 69 C-48.90604427 69 -50.64311632 70.80108732 -54 74 Z M-115.3515625 107.875 C-116.20234375 108.05546875 -117.053125 108.2359375 -117.9296875 108.421875 C-118.81914062 108.61265625 -119.70859375 108.8034375 -120.625 109 C-121.5221875 109.19078125 -122.419375 109.3815625 -123.34375 109.578125 C-125.56289039 110.05028253 -127.7816135 110.52431519 -130 111 C-130 111.66 -130 112.32 -130 113 C-124.53227411 114.38876744 -120.43543641 113.45311428 -115.125 112.0625 C-114.34125 111.86720703 -113.5575 111.67191406 -112.75 111.47070312 C-110.8307009 110.99087835 -108.91495834 110.49686558 -107 110 C-107.66 109.01 -108.32 108.02 -109 107 C-111.24108243 107 -113.15836239 107.40711731 -115.3515625 107.875 Z M-133 121 C-133.33 122.32 -133.66 123.64 -134 125 C-130.7 126.65 -127.4 128.3 -124 130 C-123.67 128.68 -123.34 127.36 -123 126 C-126.3 124.35 -129.6 122.7 -133 121 Z " fill="#299876" transform="translate(432,96)"/>
<path d="M0 0 C1.670625 0.061875 1.670625 0.061875 3.375 0.125 C3.375 0.785 3.375 1.445 3.375 2.125 C5.355 2.125 7.335 2.125 9.375 2.125 C10.34980569 7.01450156 10.52615028 11.66516308 10.5 16.625 C10.50386719 17.35847656 10.50773438 18.09195313 10.51171875 18.84765625 C10.50423833 23.02921342 10.36697645 27.03780588 9.375 31.125 C7.375 32.3125 7.375 32.3125 5.375 33.125 C5.045 34.115 4.715 35.105 4.375 36.125 C2.73828125 37.15234375 2.73828125 37.15234375 0.6875 38.0625 C-2.04324364 39.33227128 -4.5308343 40.64963236 -7 42.375 C-9.625 44.125 -9.625 44.125 -11.625 44.125 C-11.955 45.115 -12.285 46.105 -12.625 47.125 C-13.3675 47.24875 -14.11 47.3725 -14.875 47.5 C-19.26167611 48.49697184 -21.09160641 49.32490962 -23.625 53.125 C-24.285 53.125 -24.945 53.125 -25.625 53.125 C-26.615 54.115 -26.615 54.115 -27.625 55.125 C-29.61136298 55.83126239 -31.61348259 56.49393571 -33.625 57.125 C-36.3443293 57.91202351 -36.3443293 57.91202351 -38.625 59.125 C-39.285 60.445 -39.945 61.765 -40.625 63.125 C-45.905 63.125 -51.185 63.125 -56.625 63.125 C-57.12 61.145 -57.12 61.145 -57.625 59.125 C-60.87736819 56.87336048 -64.84366927 56.14305058 -68.625 55.125 C-68.625 56.445 -68.625 57.765 -68.625 59.125 C-70.30941477 59.49356092 -71.99777669 59.84409728 -73.6875 60.1875 C-74.62722656 60.38472656 -75.56695312 60.58195312 -76.53515625 60.78515625 C-79.41465391 61.10186459 -81.66431757 60.81474235 -84.49757385 60.37965393 C-88.84137057 59.85969938 -93.2199176 59.88221964 -97.58984375 59.80859375 C-98.62315323 59.78781265 -99.65646271 59.76703156 -100.72108459 59.74562073 C-104.00149284 59.68056522 -107.28197685 59.62144596 -110.5625 59.5625 C-112.79492951 59.51927289 -115.02735154 59.47565729 -117.25976562 59.43164062 C-122.71476734 59.32492925 -128.1698448 59.22353942 -133.625 59.125 C-133.625 54.835 -133.625 50.545 -133.625 46.125 C-111.35 45.63 -111.35 45.63 -88.625 45.125 C-88.625 43.475 -88.625 41.825 -88.625 40.125 C-87.625 39.125 -87.625 39.125 -84.5625 39.0625 C-83.593125 39.083125 -82.62375 39.10375 -81.625 39.125 C-81.295 38.135 -80.965 37.145 -80.625 36.125 C-79.97015625 36.08761719 -79.3153125 36.05023438 -78.640625 36.01171875 C-70.88060018 35.45273391 -62.49201305 34.59811152 -55.46484375 31.02734375 C-53.625 30.125 -53.625 30.125 -50.625 30.125 C-48.44926889 32.84466388 -47.54815464 34.29891238 -47.875 37.8125 C-48.625 40.125 -48.625 40.125 -49.625 42.125 C-49.85774209 45.00410588 -50.04472757 47.86646495 -50.1875 50.75 C-50.25227539 51.95269531 -50.25227539 51.95269531 -50.31835938 53.1796875 C-50.42451457 55.1612511 -50.52526855 57.14310271 -50.625 59.125 C-49.635 59.125 -48.645 59.125 -47.625 59.125 C-47.625 58.135 -47.625 57.145 -47.625 56.125 C-46.965 56.125 -46.305 56.125 -45.625 56.125 C-45.65529297 55.35833008 -45.68558594 54.59166016 -45.71679688 53.80175781 C-45.85367119 50.3262031 -45.98934884 46.85060266 -46.125 43.375 C-46.19654297 41.56515625 -46.19654297 41.56515625 -46.26953125 39.71875 C-46.33720703 37.97851562 -46.33720703 37.97851562 -46.40625 36.203125 C-46.44814453 35.13481445 -46.49003906 34.06650391 -46.53320312 32.96582031 C-46.60685495 30.68653124 -46.625 28.40547873 -46.625 26.125 C-45.8 25.8775 -44.975 25.63 -44.125 25.375 C-40.69810143 24.15110765 -37.64926678 22.65487988 -34.45703125 20.9296875 C-32.625 20.125 -32.625 20.125 -29.625 20.125 C-29.13 25.57 -29.13 25.57 -28.625 31.125 C-24.15730317 31.125 -21.46999483 29.81141468 -17.625 27.8125 C-17.00882812 27.50376953 -16.39265625 27.19503906 -15.7578125 26.87695312 C-12.46826119 25.20041142 -9.56648264 23.33792097 -6.625 21.125 C-5.965 21.125 -5.305 21.125 -4.625 21.125 C-4.6861499 20.27736084 -4.6861499 20.27736084 -4.74853516 19.41259766 C-4.92661821 16.85902328 -5.0884976 14.3046743 -5.25 11.75 C-5.31445312 10.86054688 -5.37890625 9.97109375 -5.4453125 9.0546875 C-5.496875 8.20390625 -5.5484375 7.353125 -5.6015625 6.4765625 C-5.65393066 5.69104004 -5.70629883 4.90551758 -5.76025391 4.09619141 C-5.4889771 0.14260133 -3.6232275 0.12493888 0 0 Z M-84.625 44.125 C-84.955 45.445 -85.285 46.765 -85.625 48.125 C-82.325 49.775 -79.025 51.425 -75.625 53.125 C-75.295 51.805 -74.965 50.485 -74.625 49.125 C-77.925 47.475 -81.225 45.825 -84.625 44.125 Z " fill="#229576" transform="translate(383.625,172.875)"/>
<path d="M0 0 C2.59314131 0.96709475 4.90871644 2.19447255 7.32421875 3.546875 C8.78988281 4.36285156 8.78988281 4.36285156 10.28515625 5.1953125 C11.22617187 5.72382812 12.1671875 6.25234375 13.13671875 6.796875 C14.57412608 7.58870991 16.01161984 8.38038796 17.44921875 9.171875 C23.70875215 12.66061136 29.92791395 16.21891969 36.13671875 19.796875 C37.14347656 20.37179688 38.15023437 20.94671875 39.1875 21.5390625 C40.07824219 22.05726562 40.96898437 22.57546875 41.88671875 23.109375 C43.05460937 23.78419922 43.05460937 23.78419922 44.24609375 24.47265625 C46.13671875 25.796875 46.13671875 25.796875 48.13671875 28.796875 C39.99378148 39.37264045 31.76489302 48.63552366 19.39453125 54.20703125 C16.85968132 55.44406233 14.61381113 56.71305571 12.25390625 58.23046875 C11.59100586 58.65384521 10.92810547 59.07722168 10.24511719 59.51342773 C8.94874549 60.35230341 7.66229698 61.20677142 6.38769531 62.07836914 C3.43172361 63.97081452 1.73997745 64.888009 -1.78515625 64.35546875 C-6.4801 61.97820662 -10.93553166 59.28202695 -15.41015625 56.51757812 C-20.11020724 53.67124761 -24.66039162 51.57619279 -29.86328125 49.796875 C-29.86328125 49.136875 -29.86328125 48.476875 -29.86328125 47.796875 C-30.41886719 47.52359375 -30.97445313 47.2503125 -31.546875 46.96875 C-34.03525644 45.70987237 -36.4800803 44.38678775 -38.92578125 43.046875 C-39.88226563 42.52351563 -40.83875 42.00015625 -41.82421875 41.4609375 C-42.82710938 40.91179687 -43.83 40.36265625 -44.86328125 39.796875 C-46.92558662 38.67151824 -48.98807759 37.54650154 -51.05078125 36.421875 C-52.65494792 35.546875 -54.25911458 34.671875 -55.86328125 33.796875 C-54.39015972 29.34764983 -51.01187924 27.8246357 -47.11328125 25.734375 C-46.200625 25.22680664 -46.200625 25.22680664 -45.26953125 24.70898438 C-42.42261033 23.13648639 -39.55372783 21.64303633 -36.640625 20.1953125 C-34.37693583 19.05550839 -32.29205459 17.86827509 -30.17578125 16.484375 C-27.0117595 14.4714545 -23.78968865 12.63813047 -20.48828125 10.859375 C-0.28356196 -0.03091242 -0.28356196 -0.03091242 0 0 Z M-6.92578125 22.421875 C-8.36050781 23.23398438 -8.36050781 23.23398438 -9.82421875 24.0625 C-10.82710938 24.63484375 -11.83 25.2071875 -12.86328125 25.796875 C-14.92344401 26.9261494 -16.98583915 28.05136378 -19.05078125 29.171875 C-19.97246094 29.67460938 -20.89414062 30.17734375 -21.84375 30.6953125 C-22.51019531 31.05882812 -23.17664063 31.42234375 -23.86328125 31.796875 C-20.12325569 34.93708514 -16.2074156 37.54533096 -11.98828125 39.984375 C-11.40175781 40.33951172 -10.81523437 40.69464844 -10.2109375 41.06054688 C-6.04328461 43.47412168 -2.69739878 44.88420762 2.13671875 44.796875 C5.67832705 43.40627073 8.83613888 41.53158403 12.07421875 39.546875 C12.94884766 39.04285156 13.82347656 38.53882813 14.72460938 38.01953125 C18.05097022 36.07864475 18.05097022 36.07864475 21.13671875 33.796875 C21.13671875 32.806875 21.13671875 31.816875 21.13671875 30.796875 C19.41683821 29.34477901 19.41683821 29.34477901 17.12109375 28.09765625 C16.28191406 27.61103516 15.44273437 27.12441406 14.578125 26.62304688 C13.68996094 26.12353516 12.80179688 25.62402344 11.88671875 25.109375 C11.01402344 24.59826172 10.14132812 24.08714844 9.2421875 23.56054688 C3.00585065 19.99488558 -0.32915635 18.63294464 -6.92578125 22.421875 Z " fill="#16497D" transform="translate(335.86328125,96.203125)"/>
<path d="M0 0 C0.68956364 -0.00297112 1.37912728 -0.00594224 2.08958679 -0.0090034 C4.41732629 -0.01772637 6.74501458 -0.01920166 9.07276917 -0.02069092 C10.73467622 -0.02531651 12.3965822 -0.03034081 14.05848694 -0.03573608 C18.58527673 -0.04888602 23.11205168 -0.05530994 27.6388576 -0.05974674 C30.46359697 -0.06267295 33.28833223 -0.06677685 36.11306953 -0.07125092 C44.94116747 -0.08493191 53.76925608 -0.09459594 62.59736389 -0.09845281 C72.80665369 -0.10293694 83.01580983 -0.12049877 93.22505897 -0.1494534 C101.10445351 -0.17102882 108.98381032 -0.18115485 116.8632341 -0.18249393 C121.57497635 -0.18354482 126.28659307 -0.18951281 130.99830437 -0.20731354 C135.42811813 -0.22372315 139.85771104 -0.22598461 144.28754425 -0.21717453 C145.91700644 -0.21640035 147.54648017 -0.2207966 149.17591286 -0.23063278 C151.39342177 -0.24323807 153.61013481 -0.23753901 155.82763672 -0.22705078 C157.07075843 -0.22851734 158.31388014 -0.2299839 159.5946722 -0.2314949 C160.54594274 -0.10875576 161.49721327 0.01398338 162.47731018 0.14044189 C164.47731018 3.14044189 164.47731018 3.14044189 163.47731018 14.14044189 C107.04731018 14.14044189 50.61731018 14.14044189 -7.52268982 14.14044189 C-7.52268982 0.01800649 -7.52268982 0.01800649 0 0 Z " fill="#276091" transform="translate(257.52268981933594,258.85955810546875)"/>
<path d="M0 0 C2.25 0.3125 2.25 0.3125 4 1 C4.95946595 5.61965088 4.96102244 9.68129125 4.5625 14.375 C4.46066406 15.62023437 4.35882813 16.86546875 4.25390625 18.1484375 C4.17011719 19.08945313 4.08632813 20.03046875 4 21 C3.67 19.68 3.34 18.36 3 17 C-53.1 17 -109.2 17 -167 17 C-167 12.71 -167 8.42 -167 4 C-156.6556682 3.95364798 -146.31136113 3.91811618 -135.9669466 3.89637566 C-131.16355532 3.88594101 -126.36023513 3.87178756 -121.55688477 3.84912109 C-116.92089833 3.82738145 -112.28498024 3.81542897 -107.64894676 3.81024551 C-105.88072827 3.80655178 -104.11251349 3.79933887 -102.34432411 3.78853989 C-99.86659298 3.77401008 -97.38914387 3.77202268 -94.91137695 3.77294922 C-93.8162529 3.76216339 -93.8162529 3.76216339 -92.69900513 3.75115967 C-88.64989778 3.7675306 -85.6789177 4.34595814 -82 6 C-79.18392145 5.71117143 -76.91051727 4.9661423 -74.2628479 3.96434021 C-70.73247361 2.92093212 -67.90676556 2.77799967 -64.23193359 2.82055664 C-63.58399338 2.82508347 -62.93605316 2.82961029 -62.26847839 2.83427429 C-60.87219535 2.84517072 -59.4759418 2.8606309 -58.07975388 2.88023567 C-55.86861611 2.9105653 -53.657745 2.92725302 -51.44644165 2.94029236 C-45.16330918 2.97991958 -38.88050141 3.04525454 -32.59765625 3.11645508 C-28.7458205 3.15917151 -24.8940918 3.18726234 -21.0420723 3.20675468 C-19.57721255 3.21731322 -18.11238265 3.23370107 -16.64765549 3.25605965 C-14.60138577 3.28726444 -12.55574845 3.30002716 -10.50927734 3.30883789 C-9.34600922 3.32153214 -8.18274109 3.33422638 -6.98422241 3.3473053 C-3.68260664 2.9630616 -2.48831486 2.09704243 0 0 Z " fill="#256CA0" transform="translate(417,235)"/>
<path d="M0 0 C6.74672553 1.12445426 6.74672553 1.12445426 9.91796875 3.07421875 C10.60955078 3.4916333 11.30113281 3.90904785 12.01367188 4.33911133 C13.0897168 5.00656372 13.0897168 5.00656372 14.1875 5.6875 C15.70103067 6.60287372 17.2153539 7.51693828 18.73046875 8.4296875 C19.46185059 8.87280273 20.19323242 9.31591797 20.94677734 9.77246094 C25.21792395 12.32600733 29.61498599 14.64986177 34 17 C37.02078072 18.63166258 40.01280634 20.30770344 43 22 C43.61053223 22.33435059 44.22106445 22.66870117 44.85009766 23.01318359 C46.93169215 24.15714083 48.99732851 25.32669488 51.0625 26.5 C51.74280273 26.86778564 52.42310547 27.23557129 53.12402344 27.61450195 C55.03515625 28.71875 55.03515625 28.71875 58 31 C58.61328125 33.63671875 58.61328125 33.63671875 58 36 C53.02702703 40 53.02702703 40 50 40 C50 40.66 50 41.32 50 42 C47.03 42.66 44.06 43.32 41 44 C40.71125 43.278125 40.4225 42.55625 40.125 41.8125 C36.94798148 37.60762255 32.69855121 36.1812148 28 34 C23.92353826 31.80137092 19.9603481 29.40021097 16 27 C16.0721875 27.53625 16.144375 28.0725 16.21875 28.625 C17.18393421 36.77544448 17.06948143 44.80119139 17 53 C11.06 53 5.12 53 -1 53 C-0.67 35.51 -0.34 18.02 0 0 Z " fill="#15548A" transform="translate(276,133)"/>
<path d="M0 0 C2.17573111 2.71966388 3.07684536 4.17391238 2.75 7.6875 C2 10 2 10 1 12 C-0.23759823 15.71279469 -0.35608897 19.31306346 -0.5625 23.1875 C-0.62727539 24.31188477 -0.62727539 24.31188477 -0.69335938 25.45898438 C-0.79922685 27.30578375 -0.9000976 29.15286834 -1 31 C-2.65 31.66 -4.3 32.32 -6 33 C-6.0825 32.38125 -6.165 31.7625 -6.25 31.125 C-6.80083474 28.90315818 -6.80083474 28.90315818 -8.625 27.875 C-11.70637574 26.73975631 -14.83017165 25.85341533 -18 25 C-18 26.32 -18 27.64 -18 29 C-19.68441477 29.36856092 -21.37277669 29.71909728 -23.0625 30.0625 C-24.00222656 30.25972656 -24.94195312 30.45695312 -25.91015625 30.66015625 C-28.78965391 30.97686459 -31.03931757 30.68974235 -33.87257385 30.25465393 C-38.21637057 29.73469938 -42.5949176 29.75721964 -46.96484375 29.68359375 C-47.99815323 29.66281265 -49.03146271 29.64203156 -50.09608459 29.62062073 C-53.37649284 29.55556522 -56.65697685 29.49644596 -59.9375 29.4375 C-62.16992951 29.39427289 -64.40235154 29.35065729 -66.63476562 29.30664062 C-72.08976734 29.19992925 -77.5448448 29.09853942 -83 29 C-83 24.71 -83 20.42 -83 16 C-60.725 15.505 -60.725 15.505 -38 15 C-38 13.35 -38 11.7 -38 10 C-37 9 -37 9 -33.9375 8.9375 C-32.4834375 8.9684375 -32.4834375 8.9684375 -31 9 C-30.67 8.01 -30.34 7.02 -30 6 C-29.01773438 5.94392578 -29.01773438 5.94392578 -28.015625 5.88671875 C-20.25560018 5.32773391 -11.86701305 4.47311152 -4.83984375 0.90234375 C-3 0 -3 0 0 0 Z M-34 14 C-34.33 15.32 -34.66 16.64 -35 18 C-31.7 19.65 -28.4 21.3 -25 23 C-24.67 21.68 -24.34 20.36 -24 19 C-27.3 17.35 -30.6 15.7 -34 14 Z " fill="#1B4879" transform="translate(333,203)"/>
<path d="M0 0 C-0.33 1.32 -0.66 2.64 -1 4 C-1.66 4 -2.32 4 -3 4 C-4.96836479 5.9594041 -6.83524906 7.93532071 -8.6875 10 C-9.23059814 10.59723877 -9.77369629 11.19447754 -10.33325195 11.80981445 C-13.69168142 15.51316099 -17.01184838 19.24900106 -20.28125 23.03125 C-23.10357659 26.26409682 -25.99926836 29.43081192 -28.88671875 32.60546875 C-30.28882918 34.19418168 -31.647094 35.82275226 -32.95703125 37.48828125 C-35.1517828 40.18660868 -37.51311398 42.56929364 -40 45 C-41.34578125 46.36318359 -41.34578125 46.36318359 -42.71875 47.75390625 C-43.6365625 48.68074219 -44.554375 49.60757813 -45.5 50.5625 C-46.4178125 51.49191406 -47.335625 52.42132813 -48.28125 53.37890625 C-55.1490313 60 -55.1490313 60 -58 60 C-58.2475 60.639375 -58.495 61.27875 -58.75 61.9375 C-60 64 -60 64 -62.125 64.75 C-62.74375 64.8325 -63.3625 64.915 -64 65 C-64 65.66 -64 66.32 -64 67 C-65.6796875 68.5078125 -65.6796875 68.5078125 -67.875 70.125 C-68.59429687 70.66382813 -69.31359375 71.20265625 -70.0546875 71.7578125 C-72 73 -72 73 -74 73 C-74 73.66 -74 74.32 -74 75 C-76 76.625 -76 76.625 -78 78 C-78.66 77.67 -79.32 77.34 -80 77 C-77.03344088 72.66425975 -74.89485262 71.59614759 -70 70 C-68.71563266 68.0162233 -68.71563266 68.0162233 -68 66 C-67.01 65.505 -67.01 65.505 -66 65 C-66.66 64.01 -67.32 63.02 -68 62 C-74.62915166 63.61479335 -77.35452096 65.01099873 -81 71 C-83.4375 71.8125 -83.4375 71.8125 -86 72 C-86.928125 72.185625 -87.85625 72.37125 -88.8125 72.5625 C-89.8953125 72.7790625 -89.8953125 72.7790625 -91 73 C-86.33583569 68.11720298 -81.16061616 64.0133313 -75.8828125 59.81640625 C-72.02584834 56.72355763 -68.45586842 53.54729351 -65 50 C-63.86723106 49.0262591 -62.72293847 48.06559521 -61.5625 47.125 C-58.49926682 44.54018936 -55.95541271 41.74144637 -53.40234375 38.66015625 C-50.59172799 35.33282562 -47.39707402 32.3790252 -44.25 29.375 C-41.80995326 27.13466888 -41.80995326 27.13466888 -41 24 C-41.680625 23.773125 -42.36125 23.54625 -43.0625 23.3125 C-46.67613614 21.69789662 -50.14279158 19.77486812 -53 17 C-53 16.01 -53 15.02 -53 14 C-41.59048998 10.41212279 -30.22205758 6.88118074 -18.54052734 4.28710938 C-14.84006769 3.459315 -11.2665345 2.50295211 -7.6875 1.25 C-4 0 -4 0 0 0 Z " fill="#63B371" transform="translate(432,96)"/>
<path d="M0 0 C3.54115328 1.3453844 6.81429912 2.91181981 10.125 4.75 C13.03201209 6.36196363 15.93751952 7.96710661 18.87890625 9.515625 C24.66140576 12.57174435 29.91027046 15.88738186 35 20 C27.9693272 31.61589418 18.18995442 40.82246611 5.890625 46.52734375 C3.54748762 47.72107725 1.38855193 48.97577373 -0.828125 50.37890625 C-1.49634277 50.79930176 -2.16456055 51.21969727 -2.85302734 51.65283203 C-4.18462696 52.49886888 -5.50820842 53.35768117 -6.82275391 54.22998047 C-8.6796875 55.40234375 -8.6796875 55.40234375 -12 57 C-14.4453125 56.25390625 -14.4453125 56.25390625 -16 55 C-15.01 55 -14.02 55 -13 55 C-13 49.06 -13 43.12 -13 37 C-6.07 33.04 0.86 29.08 8 25 C4.28272433 22.21204325 0.53740479 19.81933444 -3.4375 17.4375 C-4.09298828 17.03853516 -4.74847656 16.63957031 -5.42382812 16.22851562 C-8.86713991 14.15976561 -12.19848741 12.35506711 -16 11 C-15.2265625 10.6596875 -15.2265625 10.6596875 -14.4375 10.3125 C-11.65957434 8.81669388 -9.22202678 7.02835007 -6.6796875 5.16796875 C-4.86817177 3.90833339 -2.96975781 2.98487891 -1 2 C-0.67 1.34 -0.34 0.68 0 0 Z " fill="#3EA677" transform="translate(349,104)"/>
<path d="M0 0 C2.55838763 3.83758145 1.88571793 6.36064485 1.25 10.6875 C1.16234375 11.37005859 1.0746875 12.05261719 0.984375 12.75585938 C0.42368189 16.87928996 -0.45088304 20.81533744 -1.50488281 24.84594727 C-2.67922931 29.95504942 -3.18965549 35.20363076 -3.85546875 40.3984375 C-4.4937368 45.14770083 -5.26497371 49.49790592 -7 54 C-7.99 54 -8.98 54 -10 54 C-11.4296875 52.5390625 -11.4296875 52.5390625 -12.875 50.625 C-15.3138849 47.60687994 -17.1475298 46.01977152 -21 45 C-21.721875 45.886875 -22.44375 46.77375 -23.1875 47.6875 C-25.63538671 50.62913659 -28.25596739 53.33013044 -31 56 C-31.66 56.66 -32.32 57.32 -33 58 C-34.010625 58.28875 -35.02125 58.5775 -36.0625 58.875 C-37.031875 59.24625 -38.00125 59.6175 -39 60 C-39.96877057 62.03243548 -39.96877057 62.03243548 -40 64 C-41.134375 64.309375 -42.26875 64.61875 -43.4375 64.9375 C-46.78775099 65.62924531 -46.78775099 65.62924531 -48 67 C-49.32520503 67.68268138 -50.65812182 68.3507041 -52 69 C-52.12375 68.236875 -52.2475 67.47375 -52.375 66.6875 C-52.88102792 63.79732864 -52.88102792 63.79732864 -55 61 C-54.45730469 60.55269531 -53.91460937 60.10539062 -53.35546875 59.64453125 C-49.41237689 56.31244101 -46.58336262 53.49280456 -44 49 C-41.76349129 46.56631798 -39.38668838 44.28546722 -37 42 C-30.21185285 35.3904883 -24.02442522 28.20518365 -17.8125 21.05859375 C-15.73628132 18.70047469 -13.61735832 16.3837256 -11.5 14.0625 C-7.42215712 9.55099287 -3.65147581 4.86080703 0 0 Z " fill="#1D9473" transform="translate(430,97)"/>
<path d="M0 0 C10.3443318 -0.04635202 20.68863887 -0.08188382 31.0330534 -0.10362434 C35.83644468 -0.11405899 40.63976487 -0.12821244 45.44311523 -0.15087891 C50.07910167 -0.17261855 54.71501976 -0.18457103 59.35105324 -0.18975449 C61.11927173 -0.19344822 62.88748651 -0.20066113 64.65567589 -0.21146011 C67.13340702 -0.22598992 69.61085613 -0.22797732 72.08862305 -0.22705078 C73.1837471 -0.23783661 73.1837471 -0.23783661 74.30099487 -0.24884033 C78.34012874 -0.23250972 81.34073993 0.30684498 85 2 C85.66 2 86.32 2 87 2 C87.495 3.485 87.495 3.485 88 5 C87.34 5.33 86.68 5.66 86 6 C85.01 5.505 85.01 5.505 84 5 C84.99 5.99 84.99 5.99 86 7 C86 8.65 86 10.3 86 12 C57.95 12 29.9 12 1 12 C0.67 8.04 0.34 4.08 0 0 Z " fill="#1F4E7F" transform="translate(250,239)"/>
<path d="M0 0 C0.83426514 -0.00315216 1.66853027 -0.00630432 2.52807617 -0.009552 C3.43017822 -0.00752777 4.33228027 -0.00550354 5.26171875 -0.00341797 C6.64870972 -0.00485306 6.64870972 -0.00485306 8.0637207 -0.00631714 C10.02067126 -0.0069983 11.97762408 -0.00514847 13.93457031 -0.00097656 C16.93690039 0.00437258 19.93908085 -0.00092372 22.94140625 -0.00732422 C24.83984408 -0.00666343 26.73828182 -0.00538224 28.63671875 -0.00341797 C29.5388208 -0.0054422 30.44092285 -0.00746643 31.37036133 -0.009552 C32.20462646 -0.00639984 33.0388916 -0.00324768 33.8984375 0 C34.63408936 0.00079559 35.36974121 0.00159119 36.12768555 0.00241089 C37.94921875 0.12939453 37.94921875 0.12939453 39.94921875 1.12939453 C39.94921875 5.41939453 39.94921875 9.70939453 39.94921875 14.12939453 C38.5830542 14.15445068 37.21688965 14.17950684 35.80932617 14.20532227 C30.69710347 14.30013468 25.58499353 14.40016922 20.47290039 14.50170898 C18.26850031 14.54478069 16.0640728 14.58647274 13.85961914 14.62670898 C10.67455813 14.68509096 7.48963174 14.74858245 4.3046875 14.81298828 C2.84774727 14.83805702 2.84774727 14.83805702 1.3613739 14.8636322 C-4.3643198 14.98510313 -9.9929806 15.35805434 -15.68363953 16.01332092 C-18.8047021 16.1663633 -21.22996294 15.42544619 -24.05078125 14.12939453 C-24.05078125 13.13939453 -24.05078125 12.14939453 -24.05078125 11.12939453 C-4.79734728 0.00518824 -4.79734728 0.00518824 0 0 Z " fill="#1673AE" transform="translate(381.05078125,217.87060546875)"/>
<path d="M0 0 C2.17573111 2.71966388 3.07684536 4.17391238 2.75 7.6875 C2 10 2 10 1 12 C-0.23759823 15.71279469 -0.35608897 19.31306346 -0.5625 23.1875 C-0.62727539 24.31188477 -0.62727539 24.31188477 -0.69335938 25.45898438 C-0.79922685 27.30578375 -0.9000976 29.15286834 -1 31 C-2.65 31.66 -4.3 32.32 -6 33 C-6.0825 32.38125 -6.165 31.7625 -6.25 31.125 C-6.80083474 28.90315818 -6.80083474 28.90315818 -8.625 27.875 C-14.01795608 25.88812145 -19.29778512 24.69823039 -25 24 C-24.67 22.35 -24.34 20.7 -24 19 C-24.928125 18.71125 -25.85625 18.4225 -26.8125 18.125 C-30 17 -30 17 -33 15 C-34.32 15.99 -35.64 16.98 -37 18 C-37.87890625 11.84765625 -37.87890625 11.84765625 -38 10 C-37 9 -37 9 -33.9375 8.9375 C-32.4834375 8.9684375 -32.4834375 8.9684375 -31 9 C-30.67 8.01 -30.34 7.02 -30 6 C-29.01773437 5.94392578 -29.01773437 5.94392578 -28.015625 5.88671875 C-20.25560018 5.32773391 -11.86701305 4.47311152 -4.83984375 0.90234375 C-3 0 -3 0 0 0 Z " fill="#1A3866" transform="translate(333,203)"/>
<path d="M0 0 C2.79772577 1.05166311 5.31405347 2.41976801 7.921875 3.87890625 C8.90671875 4.42675781 9.8915625 4.97460938 10.90625 5.5390625 C11.65390625 5.96058594 12.4015625 6.38210937 13.171875 6.81640625 C13.171875 8.13640625 13.171875 9.45640625 13.171875 10.81640625 C12.50800781 11.14253906 11.84414063 11.46867187 11.16015625 11.8046875 C4.48069795 14.98933922 4.48069795 14.98933922 -1.828125 18.81640625 C-1.828125 19.47640625 -1.828125 20.13640625 -1.828125 20.81640625 C-13.34976509 27.15125819 -13.34976509 27.15125819 -18.828125 29.81640625 C-18.828125 28.82640625 -18.828125 27.83640625 -18.828125 26.81640625 C-17.838125 26.81640625 -16.848125 26.81640625 -15.828125 26.81640625 C-15.85132813 26.05714844 -15.87453125 25.29789063 -15.8984375 24.515625 C-15.91648437 23.52175781 -15.93453125 22.52789062 -15.953125 21.50390625 C-15.97632813 20.51777344 -15.99953125 19.53164062 -16.0234375 18.515625 C-15.828125 15.81640625 -15.828125 15.81640625 -13.828125 12.81640625 C-14.158125 11.82640625 -14.488125 10.83640625 -14.828125 9.81640625 C-15.488125 9.48640625 -16.148125 9.15640625 -16.828125 8.81640625 C-15.99667969 8.33429688 -15.16523438 7.8521875 -14.30859375 7.35546875 C-13.22191406 6.72382812 -12.13523437 6.0921875 -11.015625 5.44140625 C-9.93667969 4.81492187 -8.85773438 4.1884375 -7.74609375 3.54296875 C-1.50318544 -0.15096093 -1.50318544 -0.15096093 0 0 Z " fill="#175C91" transform="translate(335.828125,96.18359375)"/>
<path d="M0 0 C3.63 1.65 7.26 3.3 11 5 C11 10.94 11 16.88 11 23 C5.375 23 5.375 23 1.79296875 20.8125 C1.04208984 20.36132812 0.29121094 19.91015625 -0.48242188 19.4453125 C-1.25134766 18.96835938 -2.02027344 18.49140625 -2.8125 18 C-3.60076172 17.52304688 -4.38902344 17.04609375 -5.20117188 16.5546875 C-7.14029896 15.37945896 -9.07267607 14.19445162 -11 13 C-9.5361389 8.60841671 -7.02168662 8.12052567 -3 6 C-3 5.34 -3 4.68 -3 4 C-2.34 4 -1.68 4 -1 4 C-0.67 2.68 -0.34 1.36 0 0 Z " fill="#165D93" transform="translate(325,136)"/>
<path d="M0 0 C41.91 0 83.82 0 127 0 C127 0.33 127 0.66 127 1 C96.4967625 1.68307221 66.01026752 2.09917099 35.5 2.0625 C34.78263672 2.06164398 34.06527344 2.06078796 33.32617188 2.05990601 C24.55075707 2.04864469 15.77537599 2.02876509 7 2 C6.896875 2.639375 6.79375 3.27875 6.6875 3.9375 C6.460625 4.618125 6.23375 5.29875 6 6 C5.01 6.33 4.02 6.66 3 7 C2.34 7.99 1.68 8.98 1 10 C0.67 6.7 0.34 3.4 0 0 Z " fill="#19436D" transform="translate(250,260)"/>
<path d="M0 0 C0.33 1.32 0.66 2.64 1 4 C1.66 2.68 2.32 1.36 3 0 C3.66 0 4.32 0 5 0 C5.03005535 5.90910946 5.01468559 11.81570105 4.95727539 17.72460938 C4.94413889 19.73433217 4.94339848 21.74417589 4.95532227 23.75390625 C4.97031764 26.64444331 4.94068433 29.53161397 4.90234375 32.421875 C4.92372658 33.76895538 4.92372658 33.76895538 4.94554138 35.14324951 C4.88797499 37.6257275 4.78774011 39.64347231 4 42 C1.75513645 44.05441568 -0.12539147 44.83018412 -3 46 C-3.33 44.68 -3.66 43.36 -4 42 C-2.35 42 -0.7 42 1 42 C1 32.43 1 22.86 1 13 C-0.32 13.33 -1.64 13.66 -3 14 C-6.09404908 13.01896005 -8.28266243 11.81155838 -11 10 C-9.47005208 8.79557292 -7.94010417 7.59114583 -6.41015625 6.38671875 C-4.72844923 4.94316909 -4.72844923 4.94316909 -4 2 C-3.01 2 -2.02 2 -1 2 C-0.67 1.34 -0.34 0.68 0 0 Z " fill="#4FA370" transform="translate(392,162)"/>
<path d="M0 0 C3.10145609 1.16304603 6.1266773 2.46988198 9.125 3.875 C10.11886719 4.33519531 10.11886719 4.33519531 11.1328125 4.8046875 C13.34808911 6.22283529 14.54024953 7.83304122 16 10 C0.80209717 29.73851083 0.80209717 29.73851083 -9 33 C-8.67 31.68 -8.34 30.36 -8 29 C-7.01 29 -6.02 29 -5 29 C-5 28.01 -5 27.02 -5 26 C-2.625 23.3125 -2.625 23.3125 0 21 C0.66 21 1.32 21 2 21 C2 19.68 2 18.36 2 17 C3.98 16.01 5.96 15.02 8 14 C8.08004482 10.4780279 8.04005702 7.38018531 7 4 C4.69 4.33 2.38 4.66 0 5 C-0.5625 3.0625 -0.5625 3.0625 -1 1 C-0.67 0.67 -0.34 0.34 0 0 Z " fill="#5FA776" transform="translate(368,115)"/>
<path d="M0 0 C0.99 0.33 1.98 0.66 3 1 C2.99476318 1.64026123 2.98952637 2.28052246 2.98413086 2.94018555 C2.96327571 5.85594695 2.95031271 8.77169262 2.9375 11.6875 C2.92912109 12.69490234 2.92074219 13.70230469 2.91210938 14.74023438 C2.90727539 16.20493164 2.90727539 16.20493164 2.90234375 17.69921875 C2.89448853 19.04246216 2.89448853 19.04246216 2.88647461 20.4128418 C3.00163806 23.03733024 3.45709462 25.43455402 4 28 C3.87890625 30.0703125 3.87890625 30.0703125 3.5625 32.125 C2.95750085 36.6816392 2.95919879 41.12439608 3.0625 45.71484375 C3 48 3 48 2 50 C8.435 49.505 8.435 49.505 15 49 C15.66 50.32 16.32 51.64 17 53 C11.06 53 5.12 53 -1 53 C-0.67 35.51 -0.34 18.02 0 0 Z " fill="#435C80" transform="translate(276,133)"/>
<path d="M0 0 C13.76524113 6.62875341 13.76524113 6.62875341 18 10 C18 10.66 18 11.32 18 12 C8.61874194 14.58382107 0.41951741 13.5364332 -9 12 C-9 11.34 -9 10.68 -9 10 C-8.28972656 9.87882813 -7.57945312 9.75765625 -6.84765625 9.6328125 C-5.92855469 9.46523437 -5.00945312 9.29765625 -4.0625 9.125 C-2.68771484 8.88136719 -2.68771484 8.88136719 -1.28515625 8.6328125 C-0.53105469 8.42398438 0.22304688 8.21515625 1 8 C1.33 7.34 1.66 6.68 2 6 C1.34 6 0.68 6 0 6 C0 4.02 0 2.04 0 0 Z " fill="#205184" transform="translate(297,220)"/>
<path d="M0 0 C10.55808656 0.96355353 10.55808656 0.96355353 15 2 C14.3503125 2.5878125 14.3503125 2.5878125 13.6875 3.1875 C11.73633776 5.28319278 10.40989838 7.51589333 9 10 C7.68 9.67 6.36 9.34 5 9 C5.33 7.68 5.66 6.36 6 5 C2.2236068 4.7018576 2.2236068 4.7018576 0 6 C0.33 6.99 0.66 7.98 1 9 C0.236875 9.12375 -0.52625 9.2475 -1.3125 9.375 C-4.20267136 9.88102792 -4.20267136 9.88102792 -7 12 C-7.87890625 5.84765625 -7.87890625 5.84765625 -8 4 C-7 3 -7 3 -3.9375 2.9375 C-2.4834375 2.9684375 -2.4834375 2.9684375 -1 3 C-0.67 2.01 -0.34 1.02 0 0 Z " fill="#113165" transform="translate(303,209)"/>
<path d="M0 0 C0.66 0 1.32 0 2 0 C2 4.29 2 8.58 2 13 C-13.18 13 -28.36 13 -44 13 C-44 12.34 -44 11.68 -44 11 C-44.66 10.67 -45.32 10.34 -46 10 C-30.82 10.33 -15.64 10.66 0 11 C0 7.37 0 3.74 0 0 Z " fill="#407EA8" transform="translate(419,219)"/>
<path d="M0 0 C0.66 0.33 1.32 0.66 2 1 C2.375 3.25 2.375 3.25 2 6 C-2.97297297 10 -2.97297297 10 -6 10 C-6 10.66 -6 11.32 -6 12 C-8.97 12.66 -11.94 13.32 -15 14 C-15.391875 13.21625 -15.78375 12.4325 -16.1875 11.625 C-18.24274669 8.64843582 -19.59679258 8.01176437 -23 7 C-15.16629613 4.80656292 -7.95472068 4.93937058 0 6 C0 4.02 0 2.04 0 0 Z " fill="#166CA3" transform="translate(332,163)"/>
<path d="M0 0 C13.86 0 27.72 0 42 0 C42 0.33 42 0.66 42 1 C36.90985861 1.16744386 31.81956506 1.32802081 26.72900391 1.48217773 C24.99652241 1.5356173 23.2640982 1.59094818 21.53173828 1.64819336 C19.04472202 1.73004993 16.5575805 1.80514988 14.0703125 1.87890625 C13.29317902 1.90594131 12.51604553 1.93297638 11.71536255 1.96083069 C6.22774341 2.11387171 6.22774341 2.11387171 4 1 C4 1.66 4 2.32 4 3 C4.66 3 5.32 3 6 3 C5.34 4.65 4.68 6.3 4 8 C7.10540926 9.21081851 7.10540926 9.21081851 11 9 C12.58528205 9.14697979 14.1688237 9.31397926 15.75 9.5 C16.54921875 9.5928125 17.3484375 9.685625 18.171875 9.78125 C19.07679688 9.88953125 19.07679688 9.88953125 20 10 C20 10.33 20 10.66 20 11 C13.73 11 7.46 11 1 11 C0.67 7.37 0.34 3.74 0 0 Z " fill="#16345F" transform="translate(250,240)"/>
<path d="M0 0 C2.58932953 3.8839943 1.8781592 6.55216361 1.25 10.9375 C1.11851562 12.01161133 1.11851562 12.01161133 0.984375 13.10742188 C0.49877005 16.74608677 -0.05962359 19.8509993 -2 23 C-2.144375 21.906875 -2.28875 20.81375 -2.4375 19.6875 C-2.88288104 16.06877013 -2.88288104 16.06877013 -4 13 C-5.32 13 -6.64 13 -8 13 C-9.78969026 15.42672567 -9.78969026 15.42672567 -11 18 C-11.8359375 16.3828125 -11.8359375 16.3828125 -12 14 C-10.27262966 11.76213534 -8.60625407 9.86108639 -6.625 7.875 C-2.88651714 4.25503809 -2.88651714 4.25503809 0 0 Z " fill="#2E8F6E" transform="translate(430,97)"/>
<path d="M0 0 C0.33 0 0.66 0 1 0 C1 8.58 1 17.16 1 26 C2.65 26.33 4.3 26.66 6 27 C5.67 28.65 5.34 30.3 5 32 C1.04 32 -2.92 32 -7 32 C-7.33 31.34 -7.66 30.68 -8 30 C-7.34 30 -6.68 30 -6 30 C-6 24.72 -6 19.44 -6 14 C-5.67 14 -5.34 14 -5 14 C-5 18.62 -5 23.24 -5 28 C-4.01 28 -3.02 28 -2 28 C-2 27.01 -2 26.02 -2 25 C-1.34 25 -0.68 25 0 25 C0 16.75 0 8.5 0 0 Z " fill="#24706B" transform="translate(338,204)"/>
<path d="M0 0 C2.29109597 -0.08075665 4.58299267 -0.13907731 6.875 -0.1875 C8.78925781 -0.23970703 8.78925781 -0.23970703 10.7421875 -0.29296875 C11.81726563 -0.19628906 12.89234375 -0.09960938 14 0 C16.36574234 3.5486135 16.10865265 4.5764525 15.625 8.6875 C15.45871094 10.17830078 15.45871094 10.17830078 15.2890625 11.69921875 C15.14597656 12.83810547 15.14597656 12.83810547 15 14 C12.125 14.125 12.125 14.125 9 14 C8.34 13.34 7.68 12.68 7 12 C8.32 12 9.64 12 11 12 C10.67 9.36 10.34 6.72 10 4 C8.68 4 7.36 4 6 4 C3.98504093 3.38001259 1.9812585 2.72045764 0 2 C0 1.34 0 0.68 0 0 Z " fill="#2972A1" transform="translate(406,259)"/>
<path d="M0 0 C1.670625 0.061875 1.670625 0.061875 3.375 0.125 C3.705 1.115 4.035 2.105 4.375 3.125 C3.385 3.62 3.385 3.62 2.375 4.125 C1.715 3.795 1.055 3.465 0.375 3.125 C-1.97246685 6.88684018 -2.2413304 10.87711367 -2.6875 15.1875 C-3.50994695 22.77984085 -3.50994695 22.77984085 -4.625 26.125 C-6.275 25.795 -7.925 25.465 -9.625 25.125 C-9.955 25.785 -10.285 26.445 -10.625 27.125 C-12.275 27.125 -13.925 27.125 -15.625 27.125 C-14.635 26.465 -13.645 25.805 -12.625 25.125 C-11.614375 24.42375 -10.60375 23.7225 -9.5625 23 C-6.625 21.125 -6.625 21.125 -4.625 21.125 C-4.6657666 20.55990723 -4.7065332 19.99481445 -4.74853516 19.41259766 C-4.92661821 16.85902328 -5.0884976 14.3046743 -5.25 11.75 C-5.31445312 10.86054688 -5.37890625 9.97109375 -5.4453125 9.0546875 C-5.496875 8.20390625 -5.5484375 7.353125 -5.6015625 6.4765625 C-5.65393066 5.69104004 -5.70629883 4.90551758 -5.76025391 4.09619141 C-5.4889771 0.14260133 -3.6232275 0.12493888 0 0 Z " fill="#46997F" transform="translate(383.625,172.875)"/>
<path d="M0 0 C1 3 1 3 -0.375 6 C-0.91125 6.99 -1.4475 7.98 -2 9 C-2.33 9.99 -2.66 10.98 -3 12 C-3.495 12.45375 -3.99 12.9075 -4.5 13.375 C-6.43309736 15.46918881 -6.62452796 17.22150692 -7 20 C-7.33 20 -7.66 20 -8 20 C-8.33 18.35 -8.66 16.7 -9 15 C-11.1385485 17.1385485 -11.42655063 18.13275314 -12 21 C-12.66 21 -13.32 21 -14 21 C-14.33 21.66 -14.66 22.32 -15 23 C-14.04530857 14.67704907 -9.37518567 7.72521012 -3.0625 2.3125 C-2.051875 1.549375 -1.04125 0.78625 0 0 Z " fill="#308774" transform="translate(272,150)"/>
<path d="M0 0 C6.27 0 12.54 0 19 0 C19 0.33 19 0.66 19 1 C13.06 1.495 13.06 1.495 7 2 C6.34 4.31 5.68 6.62 5 9 C8.07322544 9.91058531 10.80097361 10.08886184 14 10 C14.33 10.66 14.66 11.32 15 12 C10.05 12 5.1 12 0 12 C0 8.04 0 4.08 0 0 Z " fill="#16325F" transform="translate(250,219)"/>
<path d="M0 0 C12.54 0 25.08 0 38 0 C37.67 0.66 37.34 1.32 37 2 C27.1 2 17.2 2 7 2 C6.67 3.32 6.34 4.64 6 6 C5.01 6.33 4.02 6.66 3 7 C2.34 7.99 1.68 8.98 1 10 C0.67 6.7 0.34 3.4 0 0 Z " fill="#1A3259" transform="translate(250,260)"/>
<path d="M0 0 C0.5534764 2.07553648 1 3.84365964 1 6 C0.01 6.66 -0.98 7.32 -2 8 C-2 8.66 -2 9.32 -2 10 C-3.0725 10.37125 -4.145 10.7425 -5.25 11.125 C-9.29606929 12.81492452 -10.62549834 15.35909746 -13 19 C-15.4375 19.8125 -15.4375 19.8125 -18 20 C-18.928125 20.185625 -19.85625 20.37125 -20.8125 20.5625 C-21.534375 20.706875 -22.25625 20.85125 -23 21 C-18.26889211 16.03651942 -12.9900039 11.88757654 -7.61914062 7.640625 C-6.92626953 7.08632812 -6.23339844 6.53203125 -5.51953125 5.9609375 C-4.89151611 5.46384277 -4.26350098 4.96674805 -3.61645508 4.45458984 C-1.75434477 2.8995945 -1.75434477 2.8995945 0 0 Z " fill="#71B48C" transform="translate(364,148)"/>
<path d="M0 0 C-1.57106822 3.85625837 -4.04855266 6.11047114 -7 9 C-7.98091128 9.98915839 -8.96003532 10.98009186 -9.9375 11.97265625 C-10.95830996 13.00262733 -11.97914353 14.03257501 -13 15.0625 C-13.50789063 15.57876953 -14.01578125 16.09503906 -14.5390625 16.62695312 C-17.53576133 19.64286157 -20.54581671 22.49931522 -24 25 C-24.66 25 -25.32 25 -26 25 C-26.2475 25.639375 -26.495 26.27875 -26.75 26.9375 C-28 29 -28 29 -30.125 29.75 C-31.053125 29.87375 -31.053125 29.87375 -32 30 C-30.45312945 25.8234495 -27.3783873 23.66755015 -24 21 C-22.72319601 19.94468242 -21.45232967 18.8821399 -20.1875 17.8125 C-19.60355469 17.32394531 -19.01960938 16.83539063 -18.41796875 16.33203125 C-16.87338284 15.03485348 -16.87338284 15.03485348 -16 13 C-15.34 13 -14.68 13 -14 13 C-13.67 12.01 -13.34 11.02 -13 10 C-11.2578125 8.28125 -11.2578125 8.28125 -9.125 6.5 C-6.14615469 3.99734679 -6.14615469 3.99734679 -3.3671875 1.28125 C-2 0 -2 0 0 0 Z " fill="#54B178" transform="translate(400,131)"/>
<path d="M0 0 C-0.99 0.495 -0.99 0.495 -2 1 C-2.70151152 2.3153341 -3.36525925 3.65117592 -4 5 C-6 8 -6 8 -7.9453125 8.51171875 C-8.66460937 8.56972656 -9.38390625 8.62773438 -10.125 8.6875 C-11.40375 8.790625 -12.6825 8.89375 -14 9 C-14 9.66 -14 10.32 -14 11 C-14 12.32 -14 13.64 -14 15 C-18.75 13.125 -18.75 13.125 -21 12 C-19.52101764 7.5328696 -16.07943161 5.90553135 -12.1875 3.75 C-11.57068359 3.38648437 -10.95386719 3.02296875 -10.31835938 2.6484375 C-6.74708871 0.62939819 -4.11796461 -0.47062453 0 0 Z " fill="#324A71" transform="translate(301,118)"/>
<path d="M0 0 C4.68322981 1.44099379 4.68322981 1.44099379 6.0625 3.875 C6 6 6 6 4.0625 8.25 C3.381875 8.8275 2.70125 9.405 2 10 C1.67 9.34 1.34 8.68 1 8 C-1.37429296 7.74930087 -1.37429296 7.74930087 -4 8 C-4.6496875 8.7115625 -4.6496875 8.7115625 -5.3125 9.4375 C-8.08987847 12.00914674 -11.30237036 11.6969156 -15 12 C-15.33 11.34 -15.66 10.68 -16 10 C-15.28328125 9.731875 -14.5665625 9.46375 -13.828125 9.1875 C-10.96942097 7.98716019 -8.40853175 6.59193518 -5.75 5 C-4.87859375 4.484375 -4.0071875 3.96875 -3.109375 3.4375 C-0.88229606 2.17064968 -0.88229606 2.17064968 0 0 Z " fill="#24917B" transform="translate(349,104)"/>
<path d="M0 0 C0.33 0 0.66 0 1 0 C1.33 1.65 1.66 3.3 2 5 C2.66 4.34 3.32 3.68 4 3 C6 5 6 5 6 9 C13.59 9 21.18 9 29 9 C29.33 9.66 29.66 10.32 30 11 C20.1 11 10.2 11 0 11 C0 7.37 0 3.74 0 0 Z " fill="#61738F" transform="translate(250,262)"/>
<path d="M0 0 C-0.33 0.99 -0.66 1.98 -1 3 C1.64 3.66 4.28 4.32 7 5 C6.67 5.99 6.34 6.98 6 8 C-5.52164009 9.51708428 -5.52164009 9.51708428 -11 7 C-11 6.01 -11 5.02 -11 4 C-4.5 0 -4.5 0 0 0 Z " fill="#1D6086" transform="translate(368,225)"/>
<path d="M0 0 C0.33 0 0.66 0 1 0 C1 11.55 1 23.1 1 35 C-1.31 36.32 -3.62 37.64 -6 39 C-6.33 37.68 -6.66 36.36 -7 35 C-5.35 35 -3.7 35 -2 35 C-2 27.41 -2 19.82 -2 12 C-1.34 12 -0.68 12 0 12 C0 8.04 0 4.08 0 0 Z " fill="#52A891" transform="translate(395,169)"/>
<path d="M0 0 C0.66 0.66 1.32 1.32 2 2 C4.0095466 2 6.02138222 1.99498275 8.02734375 1.875 C10 2 10 2 13 4 C13.75 6 13.75 6 14 8 C13 10 13 10 11.15234375 10.6328125 C10.05599609 10.87644531 10.05599609 10.87644531 8.9375 11.125 C7.83728516 11.37636719 7.83728516 11.37636719 6.71484375 11.6328125 C6.14894531 11.75398437 5.58304687 11.87515625 5 12 C5.33 11.01 5.66 10.02 6 9 C7.98 9 9.96 9 12 9 C12 8.34 12 7.68 12 7 C6.56993784 5.67265147 1.06602971 5.66552789 -4.49414062 5.48242188 C-5.65913086 5.43118164 -5.65913086 5.43118164 -6.84765625 5.37890625 C-7.54898682 5.3538501 -8.25031738 5.32879395 -8.97290039 5.30297852 C-11.29301938 4.95620414 -12.96447025 4.14182683 -15 3 C-9.84828377 2.90961901 -5.08086796 3.15318867 0 4 C0 2.68 0 1.36 0 0 Z " fill="#3F978A" transform="translate(289,202)"/>
<path d="M0 0 C4.39383706 1.59623144 8.28995807 3.78024333 12.3125 6.125 C12.95767578 6.49753906 13.60285156 6.87007812 14.26757812 7.25390625 C15.84675945 8.16632213 17.42361864 9.08275509 19 10 C15.58389775 10.94314127 12.54865136 11.08065117 9 11 C9 10.01 9 9.02 9 8 C4.545 7.01 4.545 7.01 0 6 C0 4.02 0 2.04 0 0 Z " fill="#34658C" transform="translate(278,133)"/>
<path d="M0 0 C0 0.99 0 1.98 0 3 C2.64 2.67 5.28 2.34 8 2 C4.75359085 4.560881 1.33059284 6.62476717 -2.25 8.6875 C-3.32765625 9.31011719 -4.4053125 9.93273437 -5.515625 10.57421875 C-6.33546875 11.04472656 -7.1553125 11.51523438 -8 12 C-8.33 11.01 -8.66 10.02 -9 9 C-8.01 9 -7.02 9 -6 9 C-6 6.69 -6 4.38 -6 2 C-2.25 0 -2.25 0 0 0 Z " fill="#316995" transform="translate(326,114)"/>
<path d="M0 0 C2.0625 0.4375 2.0625 0.4375 4 1 C2.68 2.32 1.36 3.64 0 5 C1.32 5.33 2.64 5.66 4 6 C3.67 7.65 3.34 9.3 3 11 C2.34 11 1.68 11 1 11 C0.67 10.34 0.34 9.68 0 9 C-3.87876309 9.86194735 -7.44805726 11.22402863 -11 13 C-11 10.69 -11 8.38 -11 6 C-10.443125 6.185625 -9.88625 6.37125 -9.3125 6.5625 C-6.600867 7.07551165 -4.65628961 6.6640724 -2 6 C-1.855625 5.195625 -1.71125 4.39125 -1.5625 3.5625 C-1 1 -1 1 0 0 Z " fill="#36997D" transform="translate(392,155)"/>
<path d="M0 0 C0 0.66 0 1.32 0 2 C-1.134375 2.474375 -2.26875 2.94875 -3.4375 3.4375 C-6.75740166 4.63622083 -6.75740166 4.63622083 -8 6 C-9.68608966 6.07205511 -11.37500659 6.08386068 -13.0625 6.0625 C-13.98160156 6.05347656 -14.90070313 6.04445313 -15.84765625 6.03515625 C-16.55792969 6.02355469 -17.26820313 6.01195313 -18 6 C-17.34414811 9.60992379 -17.34414811 9.60992379 -16 13 C-18.49361571 11.79618552 -20.68143083 10.54571278 -23 9 C-23 8.01 -23 7.02 -23 6 C-19.73120384 4.99325541 -16.4596529 3.99577511 -13.1875 3 C-12.25873047 2.71382813 -11.32996094 2.42765625 -10.37304688 2.1328125 C-9.48037109 1.86210938 -8.58769531 1.59140625 -7.66796875 1.3125 C-6.84578857 1.06113281 -6.0236084 0.80976562 -5.17651367 0.55078125 C-3 0 -3 0 0 0 Z " fill="#89B891" transform="translate(402,104)"/>
<path d="M0 0 C0 3.98919362 -1.17179136 6.46966608 -3 10 C-4.65071396 11.02611949 -6.31970006 12.02308143 -8 13 C-10.16498958 15.55305375 -12.0974441 18.24750504 -14 21 C-14.66 19.68 -15.32 18.36 -16 17 C-14.43910887 15.2693809 -12.87621088 13.54057173 -11.3125 11.8125 C-10.44238281 10.84957031 -9.57226562 9.88664063 -8.67578125 8.89453125 C-6.17884963 6.19347091 -3.61895772 3.58226479 -1 1 C-0.67 0.67 -0.34 0.34 0 0 Z " fill="#81B48A" transform="translate(386,127)"/>
<path d="M0 0 C0.33 0 0.66 0 1 0 C1.66 3.63 2.32 7.26 3 11 C2.34 11 1.68 11 1 11 C0.67 11.99 0.34 12.98 0 14 C0 13.01 0 12.02 0 11 C-3.93075644 11.57452746 -3.93075644 11.57452746 -7 14 C-7 12.35 -7 10.7 -7 9 C-6.34 9 -5.68 9 -5 9 C-5 8.34 -5 7.68 -5 7 C-4.34 7 -3.68 7 -3 7 C-2.814375 5.824375 -2.814375 5.824375 -2.625 4.625 C-2 2 -2 2 0 0 Z " fill="#1E9175" transform="translate(263,164)"/>
<path d="M0 0 C0.66 0 1.32 0 2 0 C1.22095672 11.52164009 1.22095672 11.52164009 -1 17 C-1.99 17 -2.98 17 -4 17 C-5.36952673 14.26094655 -5.12621361 12.02912668 -5 9 C-4 7 -4 7 -1 6 C-0.67 4.02 -0.34 2.04 0 0 Z " fill="#499C87" transform="translate(424,134)"/>
<path d="M0 0 C1.32 0.99 2.64 1.98 4 3 C4 2.34 4 1.68 4 1 C4.99 1.33 5.98 1.66 7 2 C7 4.64 7 7.28 7 10 C5.35 10.66 3.7 11.32 2 12 C1.67 11.01 1.34 10.02 1 9 C1.33 8.34 1.66 7.68 2 7 C1.34 6.67 0.68 6.34 0 6 C-1.125 3.9375 -1.125 3.9375 -2 2 C-1.34 1.34 -0.68 0.68 0 0 Z " fill="#0F2A5B" transform="translate(325,224)"/>
<path d="M0 0 C-1.50769231 3.76923077 -1.50769231 3.76923077 -4 4.9375 C-6.74986668 6.39836667 -7.08833304 8.11305462 -8 11 C-8.66 11 -9.32 11 -10 11 C-11.4606285 8.35261084 -12 7.10551666 -12 4 C-11.01 3.67 -10.02 3.34 -9 3 C-8.566875 2.484375 -8.13375 1.96875 -7.6875 1.4375 C-5.21416874 -0.66941181 -3.1362632 -0.20908421 0 0 Z " fill="#26618F" transform="translate(346,240)"/>
<path d="M0 0 C1.670625 0.061875 1.670625 0.061875 3.375 0.125 C4.5 5.75 4.5 5.75 3.375 9.125 C2.715 9.125 2.055 9.125 1.375 9.125 C1.375 8.465 1.375 7.805 1.375 7.125 C-0.275 7.125 -1.925 7.125 -3.625 7.125 C-3.625 5.805 -3.625 4.485 -3.625 3.125 C-4.285 2.795 -4.945 2.465 -5.625 2.125 C-3.625 0.125 -3.625 0.125 0 0 Z " fill="#113569" transform="translate(290.625,125.875)"/>
<path d="M0 0 C0.66 1.32 1.32 2.64 2 4 C2.66 4.33 3.32 4.66 4 5 C3 9 3 9 2.4375 10.8125 C1.9128181 13.43590949 2.12342342 15.59779773 2.4375 18.25 C2.53933594 19.14203125 2.64117187 20.0340625 2.74609375 20.953125 C2.82988281 21.62859375 2.91367187 22.3040625 3 23 C2.01 23 1.02 23 0 23 C0 15.41 0 7.82 0 0 Z " fill="#1A8672" transform="translate(339,207)"/>
<path d="M0 0 C0.12375 0.639375 0.2475 1.27875 0.375 1.9375 C0.684375 2.9584375 0.684375 2.9584375 1 4 C1.66 4.33 2.32 4.66 3 5 C2.34 5 1.68 5 1 5 C1.33 5.99 1.66 6.98 2 8 C1.236875 8.12375 0.47375 8.2475 -0.3125 8.375 C-3.20267136 8.88102792 -3.20267136 8.88102792 -6 11 C-6.87890625 4.84765625 -6.87890625 4.84765625 -7 3 C-6 2 -6 2 -2.9375 1.9375 C-1.4834375 1.9684375 -1.4834375 1.9684375 0 2 C0 1.34 0 0.68 0 0 Z " fill="#0C205A" transform="translate(302,210)"/>
<path d="M0 0 C0 3 0 3 -1.6875 5 C-5.45047521 8.25446504 -8.94501523 10.61115502 -14 11 C-16.3125 10.0625 -16.3125 10.0625 -18 9 C-16.515 8.38125 -16.515 8.38125 -15 7.75 C-9.79527802 5.51789362 -4.71695322 3.14463548 0 0 Z " fill="#66A891" transform="translate(337,170)"/>
<path d="M0 0 C0.66 0 1.32 0 2 0 C2 3.3 2 6.6 2 10 C4.31 10.66 6.62 11.32 9 12 C8.67 12.66 8.34 13.32 8 14 C7.01 14 6.02 14 5 14 C5 14.66 5 15.32 5 16 C3.68 16.33 2.36 16.66 1 17 C0.09586327 13.16275828 -0.10576898 9.62497726 -0.0625 5.6875 C-0.05347656 4.61886719 -0.04445313 3.55023438 -0.03515625 2.44921875 C-0.02355469 1.64097656 -0.01195312 0.83273438 0 0 Z " fill="#2B9977" transform="translate(336,141)"/>
<path d="M0 0 C2.79772577 1.05166311 5.31405347 2.41976801 7.921875 3.87890625 C8.90671875 4.42675781 9.8915625 4.97460938 10.90625 5.5390625 C11.65390625 5.96058594 12.4015625 6.38210937 13.171875 6.81640625 C13.171875 7.14640625 13.171875 7.47640625 13.171875 7.81640625 C11.191875 7.81640625 9.211875 7.81640625 7.171875 7.81640625 C7.171875 7.15640625 7.171875 6.49640625 7.171875 5.81640625 C6.07875 5.87828125 4.985625 5.94015625 3.859375 6.00390625 C0.171875 5.81640625 0.171875 5.81640625 -1.640625 4.37890625 C-2.0325 3.86328125 -2.424375 3.34765625 -2.828125 2.81640625 C-3.488125 2.48640625 -4.148125 2.15640625 -4.828125 1.81640625 C-1.828125 -0.18359375 -1.828125 -0.18359375 0 0 Z " fill="#507FA6" transform="translate(335.828125,96.18359375)"/>
<path d="M0 0 C0.66 0.33 1.32 0.66 2 1 C2.375 3.25 2.375 3.25 2 6 C-2.97297297 10 -2.97297297 10 -6 10 C-6 10.66 -6 11.32 -6 12 C-8.97 12.66 -11.94 13.32 -15 14 C-14.67 13.01 -14.34 12.02 -14 11 C-12.02 11.495 -12.02 11.495 -10 12 C-9.34 10.35 -8.68 8.7 -8 7 C-5.36 6.67 -2.72 6.34 0 6 C0 4.02 0 2.04 0 0 Z " fill="#588EAF" transform="translate(332,163)"/>
<path d="M0 0 C0.721875 0.268125 1.44375 0.53625 2.1875 0.8125 C-6.91109155 10.17869718 -6.91109155 10.17869718 -11.8125 11.8125 C-11.4825 10.4925 -11.1525 9.1725 -10.8125 7.8125 C-9.8225 7.8125 -8.8325 7.8125 -7.8125 7.8125 C-7.8125 6.8225 -7.8125 5.8325 -7.8125 4.8125 C-3.78372302 -0.2522482 -3.78372302 -0.2522482 0 0 Z " fill="#63AB88" transform="translate(370.8125,136.1875)"/>
<path d="M0 0 C4.97209562 1.76429199 9.43438061 4.3939166 14 7 C14 7.33 14 7.66 14 8 C12.3973218 8.10824843 10.79254252 8.18570645 9.1875 8.25 C8.29417969 8.29640625 7.40085937 8.3428125 6.48046875 8.390625 C4 8 4 8 2.375 6.03125 C1.92125 5.3609375 1.4675 4.690625 1 4 C-2.10197397 3.19053578 -2.10197397 3.19053578 -5 3 C-5 2.67 -5 2.34 -5 2 C-3.35 2 -1.7 2 0 2 C0 1.34 0 0.68 0 0 Z " fill="#3478A6" transform="translate(305,148)"/>
<path d="M0 0 C1.2065625 0.0309375 1.2065625 0.0309375 2.4375 0.0625 C2.4375 0.7225 2.4375 1.3825 2.4375 2.0625 C4.4175 2.0625 6.3975 2.0625 8.4375 2.0625 C8.4375 3.0525 8.4375 4.0425 8.4375 5.0625 C5.625 6.625 5.625 6.625 2.4375 8.0625 C1.4475 7.7325 0.4575 7.4025 -0.5625 7.0625 C-0.2325 5.7425 0.0975 4.4225 0.4375 3.0625 C-0.8825 2.4025 -2.2025 1.7425 -3.5625 1.0625 C-2.5625 0.0625 -2.5625 0.0625 0 0 Z " fill="#196AA3" transform="translate(340.5625,101.9375)"/>
<path d="M0 0 C0.66 0 1.32 0 2 0 C2 1.65 2 3.3 2 5 C1.01 5 0.02 5 -1 5 C-1 5.99 -1 6.98 -1 8 C-2.65 7.67 -4.3 7.34 -6 7 C-6.66 8.32 -7.32 9.64 -8 11 C-9.98 11 -11.96 11 -14 11 C-9.7045025 7.25876024 -5.00099548 4.65848126 0 2 C0 1.34 0 0.68 0 0 Z " fill="#59AD8D" transform="translate(357,127)"/>
<path d="M0 0 C0 0.66 0 1.32 0 2 C1.98 2 3.96 2 6 2 C6 2.33 6 2.66 6 3 C4.1746875 3.2165625 4.1746875 3.2165625 2.3125 3.4375 C-0.11495123 3.73342603 -2.42114594 4.09358799 -4.8125 4.625 C-7 5 -7 5 -10 4 C-9.67 3.01 -9.34 2.02 -9 1 C-6.04335481 -0.4783226 -3.25770263 -0.06032783 0 0 Z " fill="#176899" transform="translate(384,218)"/>
<path d="M0 0 C1.67667436 0.64108137 3.34089996 1.31471955 5 2 C6.0725 2.433125 7.145 2.86625 8.25 3.3125 C11 5 11 5 11.875 7.6875 C11.936875 8.8321875 11.936875 8.8321875 12 10 C10.68 10.33 9.36 10.66 8 11 C7.67 8.69 7.34 6.38 7 4 C4.69 4.33 2.38 4.66 0 5 C-0.5625 3.0625 -0.5625 3.0625 -1 1 C-0.67 0.67 -0.34 0.34 0 0 Z " fill="#5BA677" transform="translate(368,115)"/>
<path d="M0 0 C0.83917969 0.433125 0.83917969 0.433125 1.6953125 0.875 C9.18404789 4.34245304 15.84257566 4.42315169 24 4 C23.67 4.66 23.34 5.32 23 6 C19.70835171 6.02895225 16.41673601 6.0467823 13.125 6.0625 C12.18785156 6.07087891 11.25070312 6.07925781 10.28515625 6.08789062 C8.94130859 6.09272461 8.94130859 6.09272461 7.5703125 6.09765625 C6.32918701 6.10551147 6.32918701 6.10551147 5.06298828 6.11352539 C3 6 3 6 1 5 C0.375 2.4375 0.375 2.4375 0 0 Z " fill="#61A394" transform="translate(270,184)"/>
<path d="M0 0 C2.8670615 2.8670615 4 4.91591468 4 9 C0.7 8.01 -2.6 7.02 -6 6 C-4 4 -2 2 0 0 Z " fill="#60B789" transform="translate(387,167)"/>
<path d="M0 0 C0.33 0.99 0.66 1.98 1 3 C-0.60875395 5.11436233 -2.22893775 7.03546036 -4 9 C-4.66 9.86625 -5.32 10.7325 -6 11.625 C-8.11593363 14.13767119 -10.37761876 16.03321407 -13 18 C-13.66 17.67 -14.32 17.34 -15 17 C-14.61666504 16.59160889 -14.23333008 16.18321777 -13.83837891 15.76245117 C-12.09836183 13.90620454 -10.36165448 12.04689272 -8.625 10.1875 C-8.02171875 9.54490234 -7.4184375 8.90230469 -6.796875 8.24023438 C-6.21679688 7.61826172 -5.63671875 6.99628906 -5.0390625 6.35546875 C-4.23782959 5.49924927 -4.23782959 5.49924927 -3.42041016 4.62573242 C-1.80420447 2.84684396 -1.80420447 2.84684396 0 0 Z " fill="#29996B" transform="translate(417,112)"/>
<path d="M0 0 C0.33 0 0.66 0 1 0 C1 4.62 1 9.24 1 14 C1.99 14 2.98 14 4 14 C4 13.34 4 12.68 4 12 C4.66 12 5.32 12 6 12 C6.33 13.65 6.66 15.3 7 17 C3.04 17.495 3.04 17.495 -1 18 C-1.33 17.34 -1.66 16.68 -2 16 C-1.34 16 -0.68 16 0 16 C0 10.72 0 5.44 0 0 Z " fill="#2C5673" transform="translate(332,218)"/>
<path d="M0 0 C0.66 0 1.32 0 2 0 C4.46934085 3.70401128 4.44928433 6.70587865 4 11 C3 13.5 3 13.5 2 15 C1.855625 13.906875 1.71125 12.81375 1.5625 11.6875 C1.11711896 8.06877013 1.11711896 8.06877013 0 5 C-0.99 5 -1.98 5 -3 5 C-1.125 1.125 -1.125 1.125 0 0 Z " fill="#389D82" transform="translate(426,105)"/>
<path d="M0 0 C-0.33 0.99 -0.66 1.98 -1 3 C-2.65 3.33 -4.3 3.66 -6 4 C-5.67 4.99 -5.34 5.98 -5 7 C-7.49092811 8.24546405 -8.41080733 7.7767578 -11 7 C-11 6.01 -11 5.02 -11 4 C-4.5 0 -4.5 0 0 0 Z " fill="#1D5675" transform="translate(368,225)"/>
<path d="M0 0 C3.63 1.98 7.26 3.96 11 6 C11 6.33 11 6.66 11 7 C6.545 7.495 6.545 7.495 2 8 C2 7.34 2 6.68 2 6 C0.70766393 4.62689293 -0.62437146 3.28965176 -2 2 C-1.34 1.34 -0.68 0.68 0 0 Z " fill="#3C80AB" transform="translate(320,156)"/>
<path d="M0 0 C1 3 1 3 -0.375 6 C-0.91125 6.99 -1.4475 7.98 -2 9 C-2.33 9.99 -2.66 10.98 -3 12 C-3.66 10.68 -4.32 9.36 -5 8 C-5.99 8.33 -6.98 8.66 -8 9 C-6.4169423 4.7257442 -3.49431596 2.73468206 0 0 Z " fill="#4B9590" transform="translate(272,150)"/>
<path d="M0 0 C0.33 0.66 0.66 1.32 1 2 C1.66 2 2.32 2 3 2 C3.33 3.98 3.66 5.96 4 8 C1.6875 8.6875 1.6875 8.6875 -1 9 C-2.875 7.875 -2.875 7.875 -4 6 C-3.6875 3.3125 -3.6875 3.3125 -3 1 C-2.01 0.67 -1.02 0.34 0 0 Z " fill="#2D4773" transform="translate(306,212)"/>
<path d="M0 0 C1.134375 0.020625 2.26875 0.04125 3.4375 0.0625 C3.7675 1.0525 4.0975 2.0425 4.4375 3.0625 C3.4475 3.5575 3.4475 3.5575 2.4375 4.0625 C1.7775 3.7325 1.1175 3.4025 0.4375 3.0625 C-0.2225 4.3825 -0.8825 5.7025 -1.5625 7.0625 C-2.8825 6.4025 -4.2025 5.7425 -5.5625 5.0625 C-4.43693182 0.07784091 -4.43693182 0.07784091 0 0 Z " fill="#39A774" transform="translate(383.5625,172.9375)"/>
<path d="M0 0 C0 0.66 0 1.32 0 2 C-1.6796875 3.5078125 -1.6796875 3.5078125 -3.875 5.125 C-4.59429687 5.66382813 -5.31359375 6.20265625 -6.0546875 6.7578125 C-8 8 -8 8 -10 8 C-10 8.66 -10 9.32 -10 10 C-12 11.625 -12 11.625 -14 13 C-14.66 12.67 -15.32 12.34 -16 12 C-13.03344088 7.66425975 -10.89485262 6.59614759 -6 5 C-4.71563266 3.0162233 -4.71563266 3.0162233 -4 1 C-2 0 -2 0 0 0 Z " fill="#46AD78" transform="translate(368,161)"/>
<path d="M0 0 C0 0.99 0 1.98 0 3 C-0.66 3.66 -1.32 4.32 -2 5 C-2.99 5 -3.98 5 -5 5 C-5 5.99 -5 6.98 -5 8 C-8 9 -8 9 -11 8 C-10 5 -10 5 -7.71484375 3.61328125 C-6.79832031 3.18402344 -5.88179688 2.75476563 -4.9375 2.3125 C-4.01839844 1.87550781 -3.09929687 1.43851562 -2.15234375 0.98828125 C-1.08693359 0.49908203 -1.08693359 0.49908203 0 0 Z " fill="#415F81" transform="translate(313,109)"/>
<path d="M0 0 C0.33 0 0.66 0 1 0 C1 7.92 1 15.84 1 24 C-1.49505962 21.50494038 -1.35948376 20.32671112 -1.625 16.875 C-1.69976562 15.96492187 -1.77453125 15.05484375 -1.8515625 14.1171875 C-1.90054687 13.41851562 -1.94953125 12.71984375 -2 12 C-1.34 12 -0.68 12 0 12 C0 8.04 0 4.08 0 0 Z " fill="#88CAAF" transform="translate(395,169)"/>
<path d="M0 0 C2 2 2 2 2.21118164 4.07543945 C2.19434326 4.91292725 2.17750488 5.75041504 2.16015625 6.61328125 C2.14919922 7.53173828 2.13824219 8.45019531 2.12695312 9.39648438 C2.10568359 10.35876953 2.08441406 11.32105469 2.0625 12.3125 C2.02786958 14.20434717 1.99777711 16.09628392 1.97265625 17.98828125 C1.95468994 18.82915283 1.93672363 19.67002441 1.91821289 20.53637695 C1.91955032 23.05006159 1.91955032 23.05006159 2.62670898 25.62573242 C3 28 3 28 1 31 C0.23223525 26.9247366 -0.11902034 23.08994553 -0.09765625 18.9453125 C-0.09443359 17.83671875 -0.09121094 16.728125 -0.08789062 15.5859375 C-0.07951172 14.44382813 -0.07113281 13.30171875 -0.0625 12.125 C-0.05798828 10.9596875 -0.05347656 9.794375 -0.04882812 8.59375 C-0.03708781 5.72911355 -0.0206657 2.86458367 0 0 Z " fill="#133A68" transform="translate(277,133)"/>
<path d="M0 0 C0.33 0 0.66 0 1 0 C1.77040851 6.06696699 2.09706112 11.88514973 2 18 C1.34 18 0.68 18 0 18 C-1.07525194 15.34771188 -2.09456151 12.71631546 -3 10 C-2.34 9.01 -1.68 8.02 -1 7 C-0.60612212 4.67612053 -0.26513915 2.34206251 0 0 Z " fill="#123C63" transform="translate(291,161)"/>
<path d="M0 0 C0.33 0 0.66 0 1 0 C1 3.96 1 7.92 1 12 C-4 12 -4 12 -5.8125 10.5 C-6.204375 10.005 -6.59625 9.51 -7 9 C-5.02 8.34 -3.04 7.68 -1 7 C-0.67 4.69 -0.34 2.38 0 0 Z " fill="#29779D" transform="translate(335,147)"/>
<path d="M0 0 C1.32 0.66 2.64 1.32 4 2 C4 5 4 5 1.5 7.6875 C0.675 8.450625 -0.15 9.21375 -1 10 C-1.66 9.34 -2.32 8.68 -3 8 C-3 7.01 -3 6.02 -3 5 C-1.68 4.67 -0.36 4.34 1 4 C0.67 2.68 0.34 1.36 0 0 Z " fill="#6FAD83" transform="translate(379,121)"/>
<path d="M0 0 C-0.33 0.99 -0.66 1.98 -1 3 C-1.66 3 -2.32 3 -3 3 C-3.2475 3.639375 -3.495 4.27875 -3.75 4.9375 C-5 7 -5 7 -7.125 7.75 C-8.053125 7.87375 -8.053125 7.87375 -9 8 C-9 7.34 -9 6.68 -9 6 C-9.66 5.67 -10.32 5.34 -11 5 C-9.73461631 4.15841464 -8.46246221 3.32700252 -7.1875 2.5 C-6.47980469 2.0359375 -5.77210938 1.571875 -5.04296875 1.09375 C-3 0 -3 0 0 0 Z " fill="#3E6992" transform="translate(330,100)"/>
<path d="M0 0 C-0.33 1.32 -0.66 2.64 -1 4 C-1.66 4 -2.32 4 -3 4 C-3.99 4.66 -4.98 5.32 -6 6 C-6 5.34 -6 4.68 -6 4 C-8.31 4 -10.62 4 -13 4 C-8.77894053 0.40428268 -5.4674729 0 0 0 Z " fill="#83BC9A" transform="translate(432,96)"/>
<path d="M0 0 C1.875 0.25 1.875 0.25 4 1 C5.25 3.0625 5.25 3.0625 6 5 C5.195625 5.28875 4.39125 5.5775 3.5625 5.875 C0.8673532 6.73262568 0.8673532 6.73262568 0 9 C0 8.01 0 7.02 0 6 C-0.66 6 -1.32 6 -2 6 C-1.34 4.02 -0.68 2.04 0 0 Z " fill="#298A7B" transform="translate(344,225)"/>
<path d="M0 0 C0.66 0.66 1.32 1.32 2 2 C6.77871948 2.28110115 11.28580561 1.76966439 16 1 C16.66 2.32 17.32 3.64 18 5 C12.06 5 6.12 5 0 5 C0 3.35 0 1.7 0 0 Z " fill="#2C435D" transform="translate(275,181)"/>
<path d="M0 0 C-0.99 2.31 -1.98 4.62 -3 7 C-4.98 6.01 -6.96 5.02 -9 4 C-8.67 2.68 -8.34 1.36 -8 0 C-4.71303767 -0.79953138 -3.28976808 -1.09658936 0 0 Z " fill="#2F70A2" transform="translate(312,162)"/>
<path d="M0 0 C0.5534764 2.07553648 1 3.84365964 1 6 C0.01 6.66 -0.98 7.32 -2 8 C-2 8.66 -2 9.32 -2 10 C-4.31 10 -6.62 10 -9 10 C-8.2575 9.278125 -7.515 8.55625 -6.75 7.8125 C-4.30709485 5.31407427 -2.1318953 2.76356798 0 0 Z " fill="#7EBA90" transform="translate(364,148)"/>
<path d="M0 0 C0.33 0.66 0.66 1.32 1 2 C0.67 2.99 0.34 3.98 0 5 C1.65 4.67 3.3 4.34 5 4 C1.87378374 7.39417765 -0.56541027 9.6062718 -5 11 C-5 10.01 -5 9.02 -5 8 C-4.01 8 -3.02 8 -2 8 C-2 5.69 -2 3.38 -2 1 C-1.34 0.67 -0.68 0.34 0 0 Z " fill="#144D7D" transform="translate(322,115)"/>
<path d="M0 0 C1.65 0 3.3 0 5 0 C4.690625 0.598125 4.38125 1.19625 4.0625 1.8125 C2.89790296 4.08956772 2.89790296 4.08956772 2 7 C3.32 6.67 4.64 6.34 6 6 C5.67 6.99 5.34 7.98 5 9 C2.625 8.3125 2.625 8.3125 0 7 C-1.3125 4.375 -1.3125 4.375 -2 2 C-1.34 2 -0.68 2 0 2 C0 1.34 0 0.68 0 0 Z " fill="#6FB47A" transform="translate(386,111)"/>
<path d="M0 0 C0.33 0 0.66 0 1 0 C1.33 1.65 1.66 3.3 2 5 C2.66 4.34 3.32 3.68 4 3 C6 5 6 5 6 9 C4.02 9.66 2.04 10.32 0 11 C0 7.37 0 3.74 0 0 Z " fill="#51688C" transform="translate(250,262)"/>
<path d="M0 0 C0.33 2.64 0.66 5.28 1 8 C-3.75 6.125 -3.75 6.125 -6 5 C-3.74193548 0 -3.74193548 0 0 0 Z " fill="#3E5481" transform="translate(286,125)"/>
<path d="M0 0 C1.875 1.625 1.875 1.625 3 3 C-1.79708091 3.19188324 -5.56133639 2.9022844 -10 1 C-10.33 0.34 -10.66 -0.32 -11 -1 C-6.70414377 -2.26348713 -4.08804005 -1.77740872 0 0 Z " fill="#336089" transform="translate(321,133)"/>
<path d="M0 0 C0 0.66 0 1.32 0 2 C-3.79568461 2.97798721 -6.5005999 2.92653069 -10.3125 2.0625 C-11.63701172 1.77052734 -11.63701172 1.77052734 -12.98828125 1.47265625 C-13.65214844 1.31667969 -14.31601562 1.16070312 -15 1 C-15 0.67 -15 0.34 -15 0 C-9.62374766 -0.84888195 -5.34629602 -1.0024305 0 0 Z " fill="#345376" transform="translate(309,231)"/>
<path d="M0 0 C0.33 0.99 0.66 1.98 1 3 C0.67 3.66 0.34 4.32 0 5 C0.33 5.99 0.66 6.98 1 8 C0.01 7.67 -0.98 7.34 -2 7 C-2.33 6.34 -2.66 5.68 -3 5 C-4.98 5.99 -4.98 5.99 -7 7 C-6.3125 4.625 -6.3125 4.625 -5 2 C-2.375 0.6875 -2.375 0.6875 0 0 Z " fill="#48A677" transform="translate(343,168)"/>
<path d="M0 0 C0.99 0.33 1.98 0.66 3 1 C3.33 3.97 3.66 6.94 4 10 C3.67 9.34 3.34 8.68 3 8 C2.01 7.67 1.02 7.34 0 7 C-1.1875 4.9375 -1.1875 4.9375 -2 3 C-1.34 2.01 -0.68 1.02 0 0 Z " fill="#264E7E" transform="translate(288,174)"/>
<path d="M0 0 C0 0.66 0 1.32 0 2 C-0.99 2.33 -1.98 2.66 -3 3 C-3 3.99 -3 4.98 -3 6 C-4.98 6 -6.96 6 -9 6 C-8.34 5.67 -7.68 5.34 -7 5 C-6.835 4.175 -6.67 3.35 -6.5 2.5 C-6.335 1.675 -6.17 0.85 -6 0 C-3.50907189 -1.24546405 -2.58919267 -0.7767578 0 0 Z " fill="#0754C4" transform="translate(421,236)"/>
<path d="M0 0 C2.97 0.495 2.97 0.495 6 1 C5.67 1.99 5.34 2.98 5 4 C4.34 4 3.68 4 3 4 C2.34 4.66 1.68 5.32 1 6 C-1.625 6.125 -1.625 6.125 -4 6 C-3.34 5.01 -2.68 4.02 -2 3 C-1.34 3 -0.68 3 0 3 C0 2.01 0 1.02 0 0 Z " fill="#146458" transform="translate(355,222)"/>
<path d="M0 0 C3.3 0.99 6.6 1.98 10 3 C10 3.66 10 4.32 10 5 C9.34 5 8.68 5 8 5 C7.67 5.66 7.34 6.32 7 7 C4.03 5.35 1.06 3.7 -2 2 C-1.34 1.34 -0.68 0.68 0 0 Z " fill="#3E5E83" transform="translate(296,136)"/>
<path d="M0 0 C1.32 0 2.64 0 4 0 C4.33 2.31 4.66 4.62 5 7 C4.01 7.33 3.02 7.66 2 8 C1.814375 6.824375 1.814375 6.824375 1.625 5.625 C1.20882007 2.85942178 1.20882007 2.85942178 -1 1 C-0.67 0.67 -0.34 0.34 0 0 Z " fill="#1C856B" transform="translate(266,184)"/>
<path d="M0 0 C0.66 0.66 1.32 1.32 2 2 C1.01 3.98 0.02 5.96 -1 8 C-2.32 7.67 -3.64 7.34 -5 7 C-5 6.01 -5 5.02 -5 4 C-4.34 4 -3.68 4 -3 4 C-2.67 3.01 -2.34 2.02 -2 1 C-1.34 0.67 -0.68 0.34 0 0 Z " fill="#19917B" transform="translate(260,174)"/>
<path d="M0 0 C2 1 4 2 6 3 C6 3.66 6 4.32 6 5 C3.69 5.33 1.38 5.66 -1 6 C-1 2 -1 2 0 0 Z " fill="#1C8B6D" transform="translate(370,168)"/>
<path d="M0 0 C0.99 0 1.98 0 3 0 C3 3.63 3 7.26 3 11 C0.03 10.505 0.03 10.505 -3 10 C-1.68 9.67 -0.36 9.34 1 9 C0.67 6.03 0.34 3.06 0 0 Z " fill="#3282B9" transform="translate(416,262)"/>
<path d="M0 0 C0.99 0 1.98 0 3 0 C4.30062431 3.81516464 3.89369853 7.27561763 3.5625 11.25 C3.46066406 12.51328125 3.35882813 13.7765625 3.25390625 15.078125 C3.17011719 16.04234375 3.08632813 17.0065625 3 18 C2.67 18 2.34 18 2 18 C1.92652344 16.28490234 1.92652344 16.28490234 1.8515625 14.53515625 C1.77654811 13.04424527 1.70099972 11.55336108 1.625 10.0625 C1.5940625 9.30775391 1.563125 8.55300781 1.53125 7.77539062 C1.4273685 5.84492605 1.22104386 3.92057919 1 2 C0.34 1.67 -0.32 1.34 -1 1 C-0.67 0.67 -0.34 0.34 0 0 Z " fill="#3087A3" transform="translate(418,238)"/>
<path d="M0 0 C1.8125 0.8125 1.8125 0.8125 4 2 C5.66140763 2.67966676 7.32700041 3.34938905 9 4 C8.67 5.32 8.34 6.64 8 8 C0.42857143 3.85714286 0.42857143 3.85714286 -2 1 C-1.34 0.67 -0.68 0.34 0 0 Z " fill="#49597D" transform="translate(318,225)"/>
<path d="M0 0 C4.10801767 1.18676066 5.89448334 1.89448334 9 5 C5.7 5 2.4 5 -1 5 C-1.33 4.34 -1.66 3.68 -2 3 C-1.34 3 -0.68 3 0 3 C0 2.01 0 1.02 0 0 Z " fill="#3A6F9A" transform="translate(288,139)"/>
<path d="M0 0 C2.31 0 4.62 0 7 0 C7 1.98 7 3.96 7 6 C6.01 6 5.02 6 4 6 C3.71125 5.195625 3.4225 4.39125 3.125 3.5625 C2.26737432 0.8673532 2.26737432 0.8673532 0 0 Z " fill="#196EA3" transform="translate(325,163)"/>
<path d="M0 0 C0.66 1.32 1.32 2.64 2 4 C2.99 4 3.98 4 5 4 C5 3.34 5 2.68 5 2 C6.32 2.33 7.64 2.66 9 3 C7.7636832 3.89422914 6.51028438 4.76487891 5.25 5.625 C4.55390625 6.11226562 3.8578125 6.59953125 3.140625 7.1015625 C1 8 1 8 -1.265625 7.1484375 C-1.83796875 6.76945313 -2.4103125 6.39046875 -3 6 C-2.01 6 -1.02 6 0 6 C0 4.02 0 2.04 0 0 Z " fill="#61ACA0" transform="translate(336,153)"/>
<path d="M0 0 C-1.50223584 4.20626034 -4.28550034 5.73900021 -8 8 C-8.66 7.67 -9.32 7.34 -10 7 C-8.90536178 5.82438854 -7.79892814 4.6597511 -6.6875 3.5 C-6.07261719 2.8503125 -5.45773437 2.200625 -4.82421875 1.53125 C-3 0 -3 0 0 0 Z " fill="#249165" transform="translate(394,141)"/>
<path d="M0 0 C2.4375 0.75 2.4375 0.75 5 2 C5.875 4 5.875 4 6 6 C5.67 6.66 5.34 7.32 5 8 C4.01 7.67 3.02 7.34 2 7 C2 5.68 2 4.36 2 3 C1.34 3 0.68 3 0 3 C0 2.01 0 1.02 0 0 Z " fill="#188469" transform="translate(258,188)"/>
<path d="M0 0 C1.65 0 3.3 0 5 0 C5 1.32 5 2.64 5 4 C4.21625 4.12375 3.4325 4.2475 2.625 4.375 C-0.14057822 4.79117993 -0.14057822 4.79117993 -2 7 C-2 5.35 -2 3.7 -2 2 C-1.34 2 -0.68 2 0 2 C0 1.34 0 0.68 0 0 Z " fill="#218169" transform="translate(258,171)"/>
<path d="M0 0 C0.33 0.99 0.66 1.98 1 3 C0.01 4.485 0.01 4.485 -1 6 C-4.125 6.1875 -4.125 6.1875 -7 6 C-6 3 -6 3 -2.9375 1.3125 C-1.968125 0.879375 -0.99875 0.44625 0 0 Z " fill="#17578D" transform="translate(321,143)"/>
<path d="M0 0 C1.98 0 3.96 0 6 0 C6 0.99 6 1.98 6 3 C6.66 3.33 7.32 3.66 8 4 C7.01 4.66 6.02 5.32 5 6 C3.0625 5.25 3.0625 5.25 1 4 C0.25 1.875 0.25 1.875 0 0 Z " fill="#73B37D" transform="translate(415,100)"/>
<path d="M0 0 C3.96 0 7.92 0 12 0 C12 0.66 12 1.32 12 2 C10.02 2.33 8.04 2.66 6 3 C6 2.34 6 1.68 6 1 C4.35 1.33 2.7 1.66 1 2 C0.67 1.34 0.34 0.68 0 0 Z " fill="#186496" transform="translate(394,260)"/>
<path d="M0 0 C2.97 0.495 2.97 0.495 6 1 C6.33 1.99 6.66 2.98 7 4 C4.03 3.67 1.06 3.34 -2 3 C-1.34 2.67 -0.68 2.34 0 2 C0 1.34 0 0.68 0 0 Z " fill="#4F6A8D" transform="translate(308,228)"/>
<path d="M0 0 C2.475 0.99 2.475 0.99 5 2 C4.2884375 2.804375 4.2884375 2.804375 3.5625 3.625 C1.71813924 6.42842836 1.37543153 8.69620258 1 12 C0.67 12 0.34 12 0 12 C0 8.04 0 4.08 0 0 Z " fill="#0C497A" transform="translate(278,139)"/>
<path d="M0 0 C0.99 0.33 1.98 0.66 3 1 C3.33 4.3 3.66 7.6 4 11 C3.01 11 2.02 11 1 11 C0.67 7.37 0.34 3.74 0 0 Z " fill="#1A2F54" transform="translate(250,240)"/>
<path d="M0 0 C2.97 0.495 2.97 0.495 6 1 C5.49396008 3.16874252 5.00016187 4.99967627 4 7 C3.34 7 2.68 7 2 7 C0.5393715 4.35261084 0 3.10551666 0 0 Z " fill="#12558F" transform="translate(334,244)"/>
<path d="M0 0 C0 0.66 0 1.32 0 2 C-2.3125 3.6875 -2.3125 3.6875 -5 5 C-5.99 4.67 -6.98 4.34 -8 4 C-7.67 3.01 -7.34 2.02 -7 1 C-4.53721199 -0.231394 -2.7204945 -0.07159196 0 0 Z " fill="#309583" transform="translate(379,212)"/>
<path d="M0 0 C1.2065625 0.0309375 1.2065625 0.0309375 2.4375 0.0625 C2.4375 1.3825 2.4375 2.7025 2.4375 4.0625 C1.1175 4.3925 -0.2025 4.7225 -1.5625 5.0625 C-2.2225 3.7425 -2.8825 2.4225 -3.5625 1.0625 C-2.5625 0.0625 -2.5625 0.0625 0 0 Z " fill="#2F9379" transform="translate(339.5625,198.9375)"/>
<path d="M0 0 C0 0.99 0 1.98 0 3 C-0.721875 2.7525 -1.44375 2.505 -2.1875 2.25 C-5.1794348 1.68262931 -5.1794348 1.68262931 -7.8125 3.9375 C-8.8953125 4.9584375 -8.8953125 4.9584375 -10 6 C-9.67 4.35 -9.34 2.7 -9 1 C-5.8035914 -0.06546953 -3.34252724 -0.07427838 0 0 Z " fill="#51988B" transform="translate(414,140)"/>
<path d="M0 0 C0.66 0 1.32 0 2 0 C0.64531705 4.87685861 -1.71675909 6.48592381 -6 9 C-6 7.68 -6 6.36 -6 5 C-5.01 5 -4.02 5 -3 5 C-3 4.34 -3 3.68 -3 3 C-2.01 3 -1.02 3 0 3 C0 2.01 0 1.02 0 0 Z " fill="#60AA99" transform="translate(402,146)"/>
<path d="M0 0 C1.32 0.33 2.64 0.66 4 1 C4 3.64 4 6.28 4 9 C3.01 8.67 2.02 8.34 1 8 C1.20625 7.4225 1.4125 6.845 1.625 6.25 C2.08661261 3.48032433 1.42944945 2.35438733 0 0 Z " fill="#1676B6" transform="translate(415,241)"/>
<path d="M0 0 C3.3 1.65 6.6 3.3 10 5 C9.67 5.66 9.34 6.32 9 7 C8.01 7 7.02 7 6 7 C6 6.34 6 5.68 6 5 C5.195625 4.731875 4.39125 4.46375 3.5625 4.1875 C2.716875 3.795625 1.87125 3.40375 1 3 C0.67 2.01 0.34 1.02 0 0 Z " fill="#628BA8" transform="translate(297,220)"/>
<path d="M0 0 C1.0326802 2.78823655 1.04509293 3.8677274 0.0625 6.75 C-0.288125 7.4925 -0.63875 8.235 -1 9 C-1.66 9 -2.32 9 -3 9 C-3.33 9.66 -3.66 10.32 -4 11 C-3.48964169 6.6109185 -2.47785723 3.66291938 0 0 Z " fill="#539F90" transform="translate(261,162)"/>
<path d="M0 0 C0.66 0.66 1.32 1.32 2 2 C0.35 3.65 -1.3 5.3 -3 7 C-3.66 6.34 -4.32 5.68 -5 5 C-3.35 3.35 -1.7 1.7 0 0 Z " fill="#2A9B70" transform="translate(397,135)"/>
<path d="M0 0 C0.99 0 1.98 0 3 0 C3 0.66 3 1.32 3 2 C4.32 2.66 5.64 3.32 7 4 C4.39417629 4.93065133 3.35801776 5.14917407 0.75 4.0625 C0.1725 3.711875 -0.405 3.36125 -1 3 C-0.67 2.01 -0.34 1.02 0 0 Z " fill="#329372" transform="translate(342,116)"/>
<path d="M0 0 C-0.33 1.32 -0.66 2.64 -1 4 C-2.32 4.33 -3.64 4.66 -5 5 C-5.33 3.35 -5.66 1.7 -6 0 C-3 -1 -3 -1 0 0 Z " fill="#235B94" transform="translate(334,242)"/>
<path d="M0 0 C1.32 0.33 2.64 0.66 4 1 C3.67 1.33 3.34 1.66 3 2 C2.76924918 3.34747084 2.58846937 4.70377565 2.4375 6.0625 C2.2209375 8.0115625 2.2209375 8.0115625 2 10 C0 8 0 8 -0.1953125 6.0546875 C-0.13020833 4.03645833 -0.06510417 2.01822917 0 0 Z " fill="#50617D" transform="translate(250,219)"/>
<path d="M0 0 C2.09749995 2.35968744 2.96905704 3.54616994 3.1875 6.75 C3.0946875 7.86375 3.0946875 7.86375 3 9 C2.01 9.495 2.01 9.495 1 10 C-0.60725635 6.78548731 -0.05748185 3.56387464 0 0 Z " fill="#2DA476" transform="translate(381,181)"/>
<path d="M0 0 C0 3 0 3 -1.3125 4.60546875 C-1.869375 5.12753906 -2.42625 5.64960938 -3 6.1875 C-3.556875 6.71730469 -4.11375 7.24710938 -4.6875 7.79296875 C-5.120625 8.19128906 -5.55375 8.58960938 -6 9 C-6.66 8.67 -7.32 8.34 -8 8 C-5.58443874 4.80800833 -3.31996462 2.25283313 0 0 Z " fill="#2A936A" transform="translate(383,149)"/>
<path d="M0 0 C3.96 0 7.92 0 12 0 C12 0.33 12 0.66 12 1 C8.37 1.66 4.74 2.32 1 3 C0.67 2.01 0.34 1.02 0 0 Z " fill="#6CA1C7" transform="translate(406,259)"/>
<path d="M0 0 C0.99 0.66 1.98 1.32 3 2 C2.67 2.66 2.34 3.32 2 4 C-0.97 4 -3.94 4 -7 4 C-4.68143083 2.45428722 -2.49361571 1.20381448 0 0 Z " fill="#2B856F" transform="translate(310,202)"/>
<path d="M0 0 C0.78375 0.04125 1.5675 0.0825 2.375 0.125 C1.715 1.445 1.055 2.765 0.375 4.125 C-1.605 4.125 -3.585 4.125 -5.625 4.125 C-4.13829365 1.15158729 -3.39577812 0.16170372 0 0 Z " fill="#17659D" transform="translate(317.625,155.875)"/>
<path d="M0 0 C4.455 1.98 4.455 1.98 9 4 C8.01 4.66 7.02 5.32 6 6 C2.875 5.25 2.875 5.25 0 4 C-0.33 3.34 -0.66 2.68 -1 2 C-0.67 1.34 -0.34 0.68 0 0 Z " fill="#487596" transform="translate(325,136)"/>
<path d="M0 0 C2.475 0.99 2.475 0.99 5 2 C1.31265242 4.45823172 -1.69699971 5.01242616 -6 6 C-4.73577236 3.47154472 -3.47154472 3.23577236 -1 2 C-0.67 1.34 -0.34 0.68 0 0 Z " fill="#4994A9" transform="translate(349,104)"/>
<path d="M0 0 C6.0546875 -0.1953125 6.0546875 -0.1953125 8 0 C8.66 0.66 9.32 1.32 10 2 C6.42355152 3.2380014 3.66305234 2.74926071 0 2 C0 1.34 0 0.68 0 0 Z " fill="#3E9273" transform="translate(317,180)"/>
<path d="M0 0 C0.99 0.33 1.98 0.66 3 1 C3.33 2.65 3.66 4.3 4 6 C3.01 6.66 2.02 7.32 1 8 C0 1.125 0 1.125 0 0 Z " fill="#339A7D" transform="translate(360,176)"/>
<path d="M0 0 C3.465 1.485 3.465 1.485 7 3 C6.401875 3.28875 5.80375 3.5775 5.1875 3.875 C2.80672208 5.04742026 2.80672208 5.04742026 0 7 C0 4.69 0 2.38 0 0 Z " fill="#37A780" transform="translate(381,161)"/>
<path d="M0 0 C-0.66 1.32 -1.32 2.64 -2 4 C-3.98 4 -5.96 4 -8 4 C-3.375 0 -3.375 0 0 0 Z " fill="#56A286" transform="translate(351,134)"/>
<path d="M0 0 C1.65 0 3.3 0 5 0 C5.144375 0.78375 5.28875 1.5675 5.4375 2.375 C5.87798925 4.96421018 5.87798925 4.96421018 7 7 C4.50638429 5.79618552 2.31856917 4.54571278 0 3 C0 2.01 0 1.02 0 0 Z " fill="#9AC0A1" transform="translate(379,110)"/>
<path d="M0 0 C2.97 0.495 2.97 0.495 6 1 C5.01 1.495 5.01 1.495 4 2 C4 2.66 4 3.32 4 4 C2.68 4.33 1.36 4.66 0 5 C0 3.35 0 1.7 0 0 Z " fill="#144975" transform="translate(304,226)"/>
<path d="M0 0 C0 1.98 0 3.96 0 6 C-3.875 3.25 -3.875 3.25 -5 1 C-3 0 -3 0 0 0 Z " fill="#3C9A82" transform="translate(354,193)"/>
<path d="M0 0 C0.33 0 0.66 0 1 0 C1 2.64 1 5.28 1 8 C0.01 8.495 0.01 8.495 -1 9 C-1.99 8.67 -2.98 8.34 -4 8 C-4 7.34 -4 6.68 -4 6 C-3.01 5.67 -2.02 5.34 -1 5 C-0.67 3.35 -0.34 1.7 0 0 Z " fill="#31A279" transform="translate(393,186)"/>
<path d="M0 0 C-0.75 1.9375 -0.75 1.9375 -2 4 C-4.125 4.75 -4.125 4.75 -6 5 C-6.66 4.01 -7.32 3.02 -8 2 C-2.25 0 -2.25 0 0 0 Z " fill="#4AA180" transform="translate(317,182)"/>
<path d="M0 0 C0.99 0 1.98 0 3 0 C2.34 1.98 1.68 3.96 1 6 C0.01 5.67 -0.98 5.34 -2 5 C-1.125 1.125 -1.125 1.125 0 0 Z " fill="#379B77" transform="translate(380,173)"/>
<path d="M0 0 C1.9451 2.91765 2.45276317 4.62537285 3 8 C2.34 8 1.68 8 1 8 C0.67 8.99 0.34 9.98 0 11 C0 7.37 0 3.74 0 0 Z " fill="#1F9260" transform="translate(263,167)"/>
<path d="M0 0 C2.97 0 5.94 0 9 0 C8.67 1.65 8.34 3.3 8 5 C5.36 3.68 2.72 2.36 0 1 C0 0.67 0 0.34 0 0 Z " fill="#5388B4" transform="translate(309,169)"/>
<path d="M0 0 C1.98 0 3.96 0 6 0 C3.84365964 2.15634036 1.62901288 3.47793991 -1 5 C-0.67 3.35 -0.34 1.7 0 0 Z " fill="#5DAC7C" transform="translate(353,158)"/>
<path d="M0 0 C1.98 0 3.96 0 6 0 C6.33 1.65 6.66 3.3 7 5 C3.535 3.02 3.535 3.02 0 1 C0 0.67 0 0.34 0 0 Z " fill="#4E78A1" transform="translate(316,149)"/>
<path d="M0 0 C2.475 0.99 2.475 0.99 5 2 C4.67 2.66 4.34 3.32 4 4 C1.03 3.67 -1.94 3.34 -5 3 C-5 2.67 -5 2.34 -5 2 C-3.35 2 -1.7 2 0 2 C0 1.34 0 0.68 0 0 Z " fill="#4B80AE" transform="translate(305,148)"/>
<path d="M0 0 C1.98 0.495 1.98 0.495 4 1 C3.34 2.65 2.68 4.3 2 6 C1.34 6 0.68 6 0 6 C-1.125 2.25 -1.125 2.25 0 0 Z " fill="#56A96A" transform="translate(365,148)"/>
<path d="M0 0 C0.99 0.66 1.98 1.32 3 2 C1.35 3.65 -0.3 5.3 -2 7 C-2.6875 5.1875 -2.6875 5.1875 -3 3 C-1.5625 1.25 -1.5625 1.25 0 0 Z " fill="#79B584" transform="translate(373,141)"/>
<path d="M0 0 C0 3.69418201 -1.28179295 5.77836178 -3 9 C-3.99 8.01 -4.98 7.02 -6 6 C-4 4 -2 2 0 0 Z " fill="#8FBF9C" transform="translate(386,127)"/>
<path d="M0 0 C0.66 0 1.32 0 2 0 C2 1.98 2 3.96 2 6 C1.01 6.33 0.02 6.66 -1 7 C-1.625 5.1875 -1.625 5.1875 -2 3 C-1.34 2.01 -0.68 1.02 0 0 Z " fill="#155389" transform="translate(322,109)"/>
<path d="M0 0 C-0.99 1.485 -0.99 1.485 -2 3 C-5.625 3.1875 -5.625 3.1875 -9 3 C-5.92807025 0.26939578 -4.09590633 -0.34132553 0 0 Z " fill="#86B88F" transform="translate(428,97)"/>
<path d="M0 0 C0.99 0.33 1.98 0.66 3 1 C2.67 2.32 2.34 3.64 2 5 C0.68 5.33 -0.64 5.66 -2 6 C-2 4.35 -2 2.7 -2 1 C-1.34 0.67 -0.68 0.34 0 0 Z " fill="#14315F" transform="translate(254,261)"/>
<path d="M0 0 C2.31 0 4.62 0 7 0 C7 0.66 7 1.32 7 2 C4.36 2.33 1.72 2.66 -1 3 C-0.67 2.01 -0.34 1.02 0 0 Z " fill="#416C90" transform="translate(377,218)"/>
<path d="M0 0 C2.475 0.495 2.475 0.495 5 1 C5 1.66 5 2.32 5 3 C3.35 3.33 1.7 3.66 0 4 C0 2.68 0 1.36 0 0 Z " fill="#0E435E" transform="translate(303,209)"/>
<path d="M0 0 C0.66 0.33 1.32 0.66 2 1 C2.625 3.0625 2.625 3.0625 3 5 C1.02 5 -0.96 5 -3 5 C-2.01 3.35 -1.02 1.7 0 0 Z " fill="#1E876E" transform="translate(277,200)"/>
<path d="M0 0 C2.3431213 0.25561323 4.67843403 0.59270772 7 1 C7.33 1.66 7.66 2.32 8 3 C5.125 3.625 5.125 3.625 2 4 C1.34 3.34 0.68 2.68 0 2 C0 1.34 0 0.68 0 0 Z " fill="#169273" transform="translate(344,185)"/>
<path d="M0 0 C0.66 1.32 1.32 2.64 2 4 C-2.455 3.01 -2.455 3.01 -7 2 C-3 0 -3 0 0 0 Z " fill="#1B314D" transform="translate(291,182)"/>
<path d="M0 0 C0.66 0.33 1.32 0.66 2 1 C-1.61328125 5.6875 -1.61328125 5.6875 -3 7 C-3.99 7 -4.98 7 -6 7 C-6 6.34 -6 5.68 -6 5 C-4.34467377 3.98133771 -2.67739862 2.98189187 -1 2 C-0.67 1.34 -0.34 0.68 0 0 Z " fill="#32A175" transform="translate(374,156)"/>
<path d="M0 0 C-5.75 4 -5.75 4 -8 4 C-8 3.34 -8 2.68 -8 2 C-7.34 2 -6.68 2 -6 2 C-6 1.34 -6 0.68 -6 0 C-3 -1 -3 -1 0 0 Z " fill="#6DB498" transform="translate(355,150)"/>
<path d="M0 0 C0.66 0.33 1.32 0.66 2 1 C2.625 3.5625 2.625 3.5625 3 6 C1.68 6 0.36 6 -1 6 C-1.33 5.01 -1.66 4.02 -2 3 C-1.34 2.01 -0.68 1.02 0 0 Z " fill="#145180" transform="translate(324,148)"/>
<path d="M0 0 C4.55384615 -0.36923077 4.55384615 -0.36923077 6.8125 1.5 C7.204375 1.995 7.59625 2.49 8 3 C7.67 3.66 7.34 4.32 7 5 C4.525 4.01 4.525 4.01 2 3 C2 2.34 2 1.68 2 1 C1.34 0.67 0.68 0.34 0 0 Z " fill="#113C67" transform="translate(305,142)"/>
<path d="M0 0 C1.65 0.33 3.3 0.66 5 1 C5 1.66 5 2.32 5 3 C2.69 3.33 0.38 3.66 -2 4 C-2 3.01 -2 2.02 -2 1 C-1.34 1.33 -0.68 1.66 0 2 C0 1.34 0 0.68 0 0 Z " fill="#1C8567" transform="translate(409,137)"/>
<path d="M0 0 C1.67542976 0.28604898 3.34385343 0.61781233 5 1 C3.68 2.32 2.36 3.64 1 5 C0.34 3.68 -0.32 2.36 -1 1 C-0.67 0.67 -0.34 0.34 0 0 Z " fill="#76B896" transform="translate(368,136)"/>
<path d="M0 0 C0.99 0 1.98 0 3 0 C1.95125002 2.62187494 1.35068687 3.79371361 -1.125 5.25 C-1.74375 5.4975 -2.3625 5.745 -3 6 C-1.125 1.125 -1.125 1.125 0 0 Z " fill="#209166" transform="translate(401,130)"/>
<path d="M0 0 C1.98 0.495 1.98 0.495 4 1 C3.01 2.485 3.01 2.485 2 4 C2.33 4.66 2.66 5.32 3 6 C1.68 5.67 0.36 5.34 -1 5 C-0.67 3.35 -0.34 1.7 0 0 Z " fill="#51769F" transform="translate(312,125)"/>
<path d="M0 0 C1.65 0 3.3 0 5 0 C2.31158141 2.25245881 0.35358125 3.88213958 -3 5 C-3 4.01 -3 3.02 -3 2 C-2.01 2 -1.02 2 0 2 C0 1.34 0 0.68 0 0 Z " fill="#517695" transform="translate(320,121)"/>
<path d="M0 0 C0.66 0 1.32 0 2 0 C1.67 1.32 1.34 2.64 1 4 C-0.98 4.33 -2.96 4.66 -5 5 C-5.33 4.34 -5.66 3.68 -6 3 C-5.195625 2.690625 -4.39125 2.38125 -3.5625 2.0625 C-1.10919595 1.23664655 -1.10919595 1.23664655 0 0 Z " fill="#2B8388" transform="translate(339,111)"/>
<path d="M0 0 C3.45925163 1.2491742 6.14693203 2.67527795 9 5 C7.02 5 5.04 5 3 5 C3 4.01 3 3.02 3 2 C2.01 2 1.02 2 0 2 C0 1.34 0 0.68 0 0 Z " fill="#5E8EAA" transform="translate(340,99)"/>
<path d="" fill="#000000" transform="translate(0,0)"/>
<path d="" fill="#000000" transform="translate(0,0)"/>
<path d="" fill="#00FF00" transform="translate(0,0)"/>
</svg>
